<mxfile host="app.diagrams.net" modified="2021-01-13T11:16:38.388Z" agent="5.0 (Windows NT 10.0; Win64; x64) AppleWebKit/537.36 (KHTML, like Gecko) Chrome/87.0.4280.141 Safari/537.36" etag="piTA5NIcPhHUksIb_ao7" version="14.1.9" type="github">
  <diagram id="R2lEEEUBdFMjLlhIrx00" name="Page-1">
    <mxGraphModel dx="2333" dy="1894" grid="1" gridSize="10" guides="1" tooltips="1" connect="1" arrows="1" fold="1" page="1" pageScale="1" pageWidth="850" pageHeight="1100" math="0" shadow="0" extFonts="Permanent Marker^https://fonts.googleapis.com/css?family=Permanent+Marker">
      <root>
        <mxCell id="0" />
        <mxCell id="1" parent="0" />
        <mxCell id="C-vyLk0tnHw3VtMMgP7b-2" value="Import" style="shape=table;startSize=30;container=1;collapsible=1;childLayout=tableLayout;fixedRows=1;rowLines=0;fontStyle=1;align=center;resizeLast=1;" parent="1" vertex="1">
          <mxGeometry x="40" y="360" width="250" height="340" as="geometry" />
        </mxCell>
        <mxCell id="C-vyLk0tnHw3VtMMgP7b-3" value="" style="shape=partialRectangle;collapsible=0;dropTarget=0;pointerEvents=0;fillColor=none;points=[[0,0.5],[1,0.5]];portConstraint=eastwest;top=0;left=0;right=0;bottom=1;" parent="C-vyLk0tnHw3VtMMgP7b-2" vertex="1">
          <mxGeometry y="30" width="250" height="30" as="geometry" />
        </mxCell>
        <mxCell id="C-vyLk0tnHw3VtMMgP7b-4" value="PK" style="shape=partialRectangle;overflow=hidden;connectable=0;fillColor=none;top=0;left=0;bottom=0;right=0;fontStyle=1;" parent="C-vyLk0tnHw3VtMMgP7b-3" vertex="1">
          <mxGeometry width="30" height="30" as="geometry" />
        </mxCell>
        <mxCell id="C-vyLk0tnHw3VtMMgP7b-5" value="idÂ int NOT NULL " style="shape=partialRectangle;overflow=hidden;connectable=0;fillColor=none;top=0;left=0;bottom=0;right=0;align=left;spacingLeft=6;fontStyle=5;" parent="C-vyLk0tnHw3VtMMgP7b-3" vertex="1">
          <mxGeometry x="30" width="220" height="30" as="geometry" />
        </mxCell>
        <mxCell id="C-vyLk0tnHw3VtMMgP7b-6" value="" style="shape=partialRectangle;collapsible=0;dropTarget=0;pointerEvents=0;fillColor=none;points=[[0,0.5],[1,0.5]];portConstraint=eastwest;top=0;left=0;right=0;bottom=0;" parent="C-vyLk0tnHw3VtMMgP7b-2" vertex="1">
          <mxGeometry y="60" width="250" height="30" as="geometry" />
        </mxCell>
        <mxCell id="C-vyLk0tnHw3VtMMgP7b-7" value="FK1" style="shape=partialRectangle;overflow=hidden;connectable=0;fillColor=none;top=0;left=0;bottom=0;right=0;" parent="C-vyLk0tnHw3VtMMgP7b-6" vertex="1">
          <mxGeometry width="30" height="30" as="geometry" />
        </mxCell>
        <mxCell id="C-vyLk0tnHw3VtMMgP7b-8" value="provider_id int NOT NULL" style="shape=partialRectangle;overflow=hidden;connectable=0;fillColor=none;top=0;left=0;bottom=0;right=0;align=left;spacingLeft=6;" parent="C-vyLk0tnHw3VtMMgP7b-6" vertex="1">
          <mxGeometry x="30" width="220" height="30" as="geometry" />
        </mxCell>
        <mxCell id="C-vyLk0tnHw3VtMMgP7b-9" value="" style="shape=partialRectangle;collapsible=0;dropTarget=0;pointerEvents=0;fillColor=none;points=[[0,0.5],[1,0.5]];portConstraint=eastwest;top=0;left=0;right=0;bottom=0;" parent="C-vyLk0tnHw3VtMMgP7b-2" vertex="1">
          <mxGeometry y="90" width="250" height="30" as="geometry" />
        </mxCell>
        <mxCell id="C-vyLk0tnHw3VtMMgP7b-10" value="FK2" style="shape=partialRectangle;overflow=hidden;connectable=0;fillColor=none;top=0;left=0;bottom=0;right=0;" parent="C-vyLk0tnHw3VtMMgP7b-9" vertex="1">
          <mxGeometry width="30" height="30" as="geometry" />
        </mxCell>
        <mxCell id="C-vyLk0tnHw3VtMMgP7b-11" value="vaccine_id int NOT NULL" style="shape=partialRectangle;overflow=hidden;connectable=0;fillColor=none;top=0;left=0;bottom=0;right=0;align=left;spacingLeft=6;" parent="C-vyLk0tnHw3VtMMgP7b-9" vertex="1">
          <mxGeometry x="30" width="220" height="30" as="geometry" />
        </mxCell>
        <mxCell id="C-vyLk0tnHw3VtMMgP7b-23" value="Provider" style="shape=table;startSize=30;container=1;collapsible=1;childLayout=tableLayout;fixedRows=1;rowLines=0;fontStyle=1;align=center;resizeLast=1;" parent="1" vertex="1">
          <mxGeometry x="-40" y="130" width="250" height="100" as="geometry" />
        </mxCell>
        <mxCell id="C-vyLk0tnHw3VtMMgP7b-24" value="" style="shape=partialRectangle;collapsible=0;dropTarget=0;pointerEvents=0;fillColor=none;points=[[0,0.5],[1,0.5]];portConstraint=eastwest;top=0;left=0;right=0;bottom=1;" parent="C-vyLk0tnHw3VtMMgP7b-23" vertex="1">
          <mxGeometry y="30" width="250" height="30" as="geometry" />
        </mxCell>
        <mxCell id="C-vyLk0tnHw3VtMMgP7b-25" value="PK" style="shape=partialRectangle;overflow=hidden;connectable=0;fillColor=none;top=0;left=0;bottom=0;right=0;fontStyle=1;" parent="C-vyLk0tnHw3VtMMgP7b-24" vertex="1">
          <mxGeometry width="30" height="30" as="geometry" />
        </mxCell>
        <mxCell id="C-vyLk0tnHw3VtMMgP7b-26" value="id" style="shape=partialRectangle;overflow=hidden;connectable=0;fillColor=none;top=0;left=0;bottom=0;right=0;align=left;spacingLeft=6;fontStyle=5;" parent="C-vyLk0tnHw3VtMMgP7b-24" vertex="1">
          <mxGeometry x="30" width="220" height="30" as="geometry" />
        </mxCell>
        <mxCell id="C-vyLk0tnHw3VtMMgP7b-27" value="" style="shape=partialRectangle;collapsible=0;dropTarget=0;pointerEvents=0;fillColor=none;points=[[0,0.5],[1,0.5]];portConstraint=eastwest;top=0;left=0;right=0;bottom=0;" parent="C-vyLk0tnHw3VtMMgP7b-23" vertex="1">
          <mxGeometry y="60" width="250" height="30" as="geometry" />
        </mxCell>
        <mxCell id="C-vyLk0tnHw3VtMMgP7b-28" value="" style="shape=partialRectangle;overflow=hidden;connectable=0;fillColor=none;top=0;left=0;bottom=0;right=0;" parent="C-vyLk0tnHw3VtMMgP7b-27" vertex="1">
          <mxGeometry width="30" height="30" as="geometry" />
        </mxCell>
        <mxCell id="C-vyLk0tnHw3VtMMgP7b-29" value="name varchar(50) NOT NULL" style="shape=partialRectangle;overflow=hidden;connectable=0;fillColor=none;top=0;left=0;bottom=0;right=0;align=left;spacingLeft=6;" parent="C-vyLk0tnHw3VtMMgP7b-27" vertex="1">
          <mxGeometry x="30" width="220" height="30" as="geometry" />
        </mxCell>
        <mxCell id="bM2ig-2bA8jhtnnjRm1v-3" value="" style="edgeStyle=entityRelationEdgeStyle;fontSize=12;html=1;endArrow=ERoneToMany;startArrow=ERzeroToOne;entryX=0.5;entryY=0;entryDx=0;entryDy=0;exitX=0.5;exitY=1;exitDx=0;exitDy=0;" edge="1" parent="1" source="C-vyLk0tnHw3VtMMgP7b-23" target="C-vyLk0tnHw3VtMMgP7b-2">
          <mxGeometry width="100" height="100" relative="1" as="geometry">
            <mxPoint x="300" y="100" as="sourcePoint" />
            <mxPoint x="270" y="250" as="targetPoint" />
          </mxGeometry>
        </mxCell>
        <mxCell id="bM2ig-2bA8jhtnnjRm1v-5" value="quality int" style="shape=partialRectangle;overflow=hidden;connectable=0;fillColor=none;top=0;left=0;bottom=0;right=0;align=left;spacingLeft=6;" vertex="1" parent="1">
          <mxGeometry x="70" y="480" width="220" height="30" as="geometry" />
        </mxCell>
        <mxCell id="bM2ig-2bA8jhtnnjRm1v-6" value="date Date&#xa;" style="shape=partialRectangle;overflow=hidden;connectable=0;fillColor=none;top=0;left=0;bottom=0;right=0;align=left;spacingLeft=6;" vertex="1" parent="1">
          <mxGeometry x="70" y="510" width="220" height="30" as="geometry" />
        </mxCell>
        <mxCell id="bM2ig-2bA8jhtnnjRm1v-7" value="price double" style="shape=partialRectangle;overflow=hidden;connectable=0;fillColor=none;top=0;left=0;bottom=0;right=0;align=left;spacingLeft=6;" vertex="1" parent="1">
          <mxGeometry x="70" y="530" width="220" height="30" as="geometry" />
        </mxCell>
        <mxCell id="bM2ig-2bA8jhtnnjRm1v-8" value="price double" style="shape=partialRectangle;overflow=hidden;connectable=0;fillColor=none;top=0;left=0;bottom=0;right=0;align=left;spacingLeft=6;" vertex="1" parent="1">
          <mxGeometry x="70" y="550" width="220" height="30" as="geometry" />
        </mxCell>
        <mxCell id="bM2ig-2bA8jhtnnjRm1v-9" value="" style="line;strokeWidth=1;rotatable=0;dashed=0;labelPosition=right;align=left;verticalAlign=middle;spacingTop=0;spacingLeft=6;points=[];portConstraint=eastwest;" vertex="1" parent="1">
          <mxGeometry x="40" y="450" width="250" height="10" as="geometry" />
        </mxCell>
        <mxCell id="bM2ig-2bA8jhtnnjRm1v-28" value="Vaccine" style="shape=table;startSize=30;container=1;collapsible=1;childLayout=tableLayout;fixedRows=1;rowLines=0;fontStyle=1;align=center;resizeLast=1;" vertex="1" parent="1">
          <mxGeometry x="360" y="290" width="220" height="420" as="geometry" />
        </mxCell>
        <mxCell id="bM2ig-2bA8jhtnnjRm1v-29" value="" style="shape=partialRectangle;collapsible=0;dropTarget=0;pointerEvents=0;fillColor=none;top=0;left=0;bottom=1;right=0;points=[[0,0.5],[1,0.5]];portConstraint=eastwest;" vertex="1" parent="bM2ig-2bA8jhtnnjRm1v-28">
          <mxGeometry y="30" width="220" height="30" as="geometry" />
        </mxCell>
        <mxCell id="bM2ig-2bA8jhtnnjRm1v-30" value="PK" style="shape=partialRectangle;connectable=0;fillColor=none;top=0;left=0;bottom=0;right=0;fontStyle=1;overflow=hidden;" vertex="1" parent="bM2ig-2bA8jhtnnjRm1v-29">
          <mxGeometry width="30" height="30" as="geometry" />
        </mxCell>
        <mxCell id="bM2ig-2bA8jhtnnjRm1v-31" value="id int NOT NULL" style="shape=partialRectangle;connectable=0;fillColor=none;top=0;left=0;bottom=0;right=0;align=left;spacingLeft=6;fontStyle=5;overflow=hidden;" vertex="1" parent="bM2ig-2bA8jhtnnjRm1v-29">
          <mxGeometry x="30" width="190" height="30" as="geometry" />
        </mxCell>
        <mxCell id="bM2ig-2bA8jhtnnjRm1v-32" value="" style="shape=partialRectangle;collapsible=0;dropTarget=0;pointerEvents=0;fillColor=none;top=0;left=0;bottom=0;right=0;points=[[0,0.5],[1,0.5]];portConstraint=eastwest;" vertex="1" parent="bM2ig-2bA8jhtnnjRm1v-28">
          <mxGeometry y="60" width="220" height="30" as="geometry" />
        </mxCell>
        <mxCell id="bM2ig-2bA8jhtnnjRm1v-33" value="FK" style="shape=partialRectangle;connectable=0;fillColor=none;top=0;left=0;bottom=0;right=0;editable=1;overflow=hidden;" vertex="1" parent="bM2ig-2bA8jhtnnjRm1v-32">
          <mxGeometry width="30" height="30" as="geometry" />
        </mxCell>
        <mxCell id="bM2ig-2bA8jhtnnjRm1v-34" value="type_id int NOT NULL" style="shape=partialRectangle;connectable=0;fillColor=none;top=0;left=0;bottom=0;right=0;align=left;spacingLeft=6;overflow=hidden;" vertex="1" parent="bM2ig-2bA8jhtnnjRm1v-32">
          <mxGeometry x="30" width="190" height="30" as="geometry" />
        </mxCell>
        <mxCell id="bM2ig-2bA8jhtnnjRm1v-35" value="" style="shape=partialRectangle;collapsible=0;dropTarget=0;pointerEvents=0;fillColor=none;top=0;left=0;bottom=0;right=0;points=[[0,0.5],[1,0.5]];portConstraint=eastwest;" vertex="1" parent="bM2ig-2bA8jhtnnjRm1v-28">
          <mxGeometry y="90" width="220" height="30" as="geometry" />
        </mxCell>
        <mxCell id="bM2ig-2bA8jhtnnjRm1v-36" value="" style="shape=partialRectangle;connectable=0;fillColor=none;top=0;left=0;bottom=0;right=0;editable=1;overflow=hidden;" vertex="1" parent="bM2ig-2bA8jhtnnjRm1v-35">
          <mxGeometry width="30" height="30" as="geometry" />
        </mxCell>
        <mxCell id="bM2ig-2bA8jhtnnjRm1v-37" value="name varchar(255)" style="shape=partialRectangle;connectable=0;fillColor=none;top=0;left=0;bottom=0;right=0;align=left;spacingLeft=6;overflow=hidden;" vertex="1" parent="bM2ig-2bA8jhtnnjRm1v-35">
          <mxGeometry x="30" width="190" height="30" as="geometry" />
        </mxCell>
        <mxCell id="bM2ig-2bA8jhtnnjRm1v-38" value="" style="shape=partialRectangle;collapsible=0;dropTarget=0;pointerEvents=0;fillColor=none;top=0;left=0;bottom=0;right=0;points=[[0,0.5],[1,0.5]];portConstraint=eastwest;" vertex="1" parent="bM2ig-2bA8jhtnnjRm1v-28">
          <mxGeometry y="120" width="220" height="30" as="geometry" />
        </mxCell>
        <mxCell id="bM2ig-2bA8jhtnnjRm1v-39" value="" style="shape=partialRectangle;connectable=0;fillColor=none;top=0;left=0;bottom=0;right=0;editable=1;overflow=hidden;" vertex="1" parent="bM2ig-2bA8jhtnnjRm1v-38">
          <mxGeometry width="30" height="30" as="geometry" />
        </mxCell>
        <mxCell id="bM2ig-2bA8jhtnnjRm1v-40" value="license_code varchar(50)" style="shape=partialRectangle;connectable=0;fillColor=none;top=0;left=0;bottom=0;right=0;align=left;spacingLeft=6;overflow=hidden;" vertex="1" parent="bM2ig-2bA8jhtnnjRm1v-38">
          <mxGeometry x="30" width="190" height="30" as="geometry" />
        </mxCell>
        <mxCell id="bM2ig-2bA8jhtnnjRm1v-41" value="" style="shape=partialRectangle;collapsible=0;dropTarget=0;pointerEvents=0;fillColor=none;top=0;left=0;bottom=0;right=0;points=[[0,0.5],[1,0.5]];portConstraint=eastwest;" vertex="1" parent="bM2ig-2bA8jhtnnjRm1v-28">
          <mxGeometry y="150" width="220" height="30" as="geometry" />
        </mxCell>
        <mxCell id="bM2ig-2bA8jhtnnjRm1v-42" value="" style="shape=partialRectangle;connectable=0;fillColor=none;top=0;left=0;bottom=0;right=0;editable=1;overflow=hidden;" vertex="1" parent="bM2ig-2bA8jhtnnjRm1v-41">
          <mxGeometry width="30" height="30" as="geometry" />
        </mxCell>
        <mxCell id="bM2ig-2bA8jhtnnjRm1v-43" value="origin varchar(255)" style="shape=partialRectangle;connectable=0;fillColor=none;top=0;left=0;bottom=0;right=0;align=left;spacingLeft=6;overflow=hidden;" vertex="1" parent="bM2ig-2bA8jhtnnjRm1v-41">
          <mxGeometry x="30" width="190" height="30" as="geometry" />
        </mxCell>
        <mxCell id="bM2ig-2bA8jhtnnjRm1v-44" value="" style="shape=partialRectangle;collapsible=0;dropTarget=0;pointerEvents=0;fillColor=none;top=0;left=0;bottom=0;right=0;points=[[0,0.5],[1,0.5]];portConstraint=eastwest;" vertex="1" parent="bM2ig-2bA8jhtnnjRm1v-28">
          <mxGeometry y="180" width="220" height="30" as="geometry" />
        </mxCell>
        <mxCell id="bM2ig-2bA8jhtnnjRm1v-45" value="" style="shape=partialRectangle;connectable=0;fillColor=none;top=0;left=0;bottom=0;right=0;editable=1;overflow=hidden;" vertex="1" parent="bM2ig-2bA8jhtnnjRm1v-44">
          <mxGeometry width="30" height="30" as="geometry" />
        </mxCell>
        <mxCell id="bM2ig-2bA8jhtnnjRm1v-46" value="price double" style="shape=partialRectangle;connectable=0;fillColor=none;top=0;left=0;bottom=0;right=0;align=left;spacingLeft=6;overflow=hidden;" vertex="1" parent="bM2ig-2bA8jhtnnjRm1v-44">
          <mxGeometry x="30" width="190" height="30" as="geometry" />
        </mxCell>
        <mxCell id="bM2ig-2bA8jhtnnjRm1v-69" value="" style="shape=partialRectangle;collapsible=0;dropTarget=0;pointerEvents=0;fillColor=none;top=0;left=0;bottom=0;right=0;points=[[0,0.5],[1,0.5]];portConstraint=eastwest;" vertex="1" parent="bM2ig-2bA8jhtnnjRm1v-28">
          <mxGeometry y="210" width="220" height="30" as="geometry" />
        </mxCell>
        <mxCell id="bM2ig-2bA8jhtnnjRm1v-70" value="" style="shape=partialRectangle;connectable=0;fillColor=none;top=0;left=0;bottom=0;right=0;editable=1;overflow=hidden;" vertex="1" parent="bM2ig-2bA8jhtnnjRm1v-69">
          <mxGeometry width="30" height="30" as="geometry" />
        </mxCell>
        <mxCell id="bM2ig-2bA8jhtnnjRm1v-71" value="dosage double" style="shape=partialRectangle;connectable=0;fillColor=none;top=0;left=0;bottom=0;right=0;align=left;spacingLeft=6;overflow=hidden;" vertex="1" parent="bM2ig-2bA8jhtnnjRm1v-69">
          <mxGeometry x="30" width="190" height="30" as="geometry" />
        </mxCell>
        <mxCell id="bM2ig-2bA8jhtnnjRm1v-72" value="" style="shape=partialRectangle;collapsible=0;dropTarget=0;pointerEvents=0;fillColor=none;top=0;left=0;bottom=0;right=0;points=[[0,0.5],[1,0.5]];portConstraint=eastwest;" vertex="1" parent="bM2ig-2bA8jhtnnjRm1v-28">
          <mxGeometry y="240" width="220" height="30" as="geometry" />
        </mxCell>
        <mxCell id="bM2ig-2bA8jhtnnjRm1v-73" value="" style="shape=partialRectangle;connectable=0;fillColor=none;top=0;left=0;bottom=0;right=0;editable=1;overflow=hidden;" vertex="1" parent="bM2ig-2bA8jhtnnjRm1v-72">
          <mxGeometry width="30" height="30" as="geometry" />
        </mxCell>
        <mxCell id="bM2ig-2bA8jhtnnjRm1v-74" value="maintenance_condition varchar" style="shape=partialRectangle;connectable=0;fillColor=none;top=0;left=0;bottom=0;right=0;align=left;spacingLeft=6;overflow=hidden;" vertex="1" parent="bM2ig-2bA8jhtnnjRm1v-72">
          <mxGeometry x="30" width="190" height="30" as="geometry" />
        </mxCell>
        <mxCell id="bM2ig-2bA8jhtnnjRm1v-75" value="" style="shape=partialRectangle;collapsible=0;dropTarget=0;pointerEvents=0;fillColor=none;top=0;left=0;bottom=0;right=0;points=[[0,0.5],[1,0.5]];portConstraint=eastwest;" vertex="1" parent="bM2ig-2bA8jhtnnjRm1v-28">
          <mxGeometry y="270" width="220" height="30" as="geometry" />
        </mxCell>
        <mxCell id="bM2ig-2bA8jhtnnjRm1v-76" value="" style="shape=partialRectangle;connectable=0;fillColor=none;top=0;left=0;bottom=0;right=0;editable=1;overflow=hidden;" vertex="1" parent="bM2ig-2bA8jhtnnjRm1v-75">
          <mxGeometry width="30" height="30" as="geometry" />
        </mxCell>
        <mxCell id="bM2ig-2bA8jhtnnjRm1v-77" value="age doubleÂ &#xa;" style="shape=partialRectangle;connectable=0;fillColor=none;top=0;left=0;bottom=0;right=0;align=left;spacingLeft=6;overflow=hidden;" vertex="1" parent="bM2ig-2bA8jhtnnjRm1v-75">
          <mxGeometry x="30" width="190" height="30" as="geometry" />
        </mxCell>
        <mxCell id="bM2ig-2bA8jhtnnjRm1v-78" value="" style="shape=partialRectangle;collapsible=0;dropTarget=0;pointerEvents=0;fillColor=none;top=0;left=0;bottom=0;right=0;points=[[0,0.5],[1,0.5]];portConstraint=eastwest;" vertex="1" parent="bM2ig-2bA8jhtnnjRm1v-28">
          <mxGeometry y="300" width="220" height="30" as="geometry" />
        </mxCell>
        <mxCell id="bM2ig-2bA8jhtnnjRm1v-79" value="" style="shape=partialRectangle;connectable=0;fillColor=none;top=0;left=0;bottom=0;right=0;editable=1;overflow=hidden;" vertex="1" parent="bM2ig-2bA8jhtnnjRm1v-78">
          <mxGeometry width="30" height="30" as="geometry" />
        </mxCell>
        <mxCell id="bM2ig-2bA8jhtnnjRm1v-80" value="expired double" style="shape=partialRectangle;connectable=0;fillColor=none;top=0;left=0;bottom=0;right=0;align=left;spacingLeft=6;overflow=hidden;" vertex="1" parent="bM2ig-2bA8jhtnnjRm1v-78">
          <mxGeometry x="30" width="190" height="30" as="geometry" />
        </mxCell>
        <mxCell id="bM2ig-2bA8jhtnnjRm1v-66" value="" style="shape=partialRectangle;collapsible=0;dropTarget=0;pointerEvents=0;fillColor=none;top=0;left=0;bottom=0;right=0;points=[[0,0.5],[1,0.5]];portConstraint=eastwest;" vertex="1" parent="bM2ig-2bA8jhtnnjRm1v-28">
          <mxGeometry y="330" width="220" height="30" as="geometry" />
        </mxCell>
        <mxCell id="bM2ig-2bA8jhtnnjRm1v-67" value="" style="shape=partialRectangle;connectable=0;fillColor=none;top=0;left=0;bottom=0;right=0;editable=1;overflow=hidden;" vertex="1" parent="bM2ig-2bA8jhtnnjRm1v-66">
          <mxGeometry width="30" height="30" as="geometry" />
        </mxCell>
        <mxCell id="bM2ig-2bA8jhtnnjRm1v-68" value="" style="shape=partialRectangle;connectable=0;fillColor=none;top=0;left=0;bottom=0;right=0;align=left;spacingLeft=6;overflow=hidden;" vertex="1" parent="bM2ig-2bA8jhtnnjRm1v-66">
          <mxGeometry x="30" width="190" height="30" as="geometry" />
        </mxCell>
        <mxCell id="bM2ig-2bA8jhtnnjRm1v-83" value="" style="edgeStyle=entityRelationEdgeStyle;fontSize=12;html=1;endArrow=ERoneToMany;startArrow=ERzeroToOne;exitX=0.004;exitY=-0.06;exitDx=0;exitDy=0;exitPerimeter=0;entryX=1;entryY=0.5;entryDx=0;entryDy=0;" edge="1" parent="1" source="bM2ig-2bA8jhtnnjRm1v-69" target="C-vyLk0tnHw3VtMMgP7b-9">
          <mxGeometry width="100" height="100" relative="1" as="geometry">
            <mxPoint x="290" y="460" as="sourcePoint" />
            <mxPoint x="510" y="360" as="targetPoint" />
          </mxGeometry>
        </mxCell>
        <mxCell id="bM2ig-2bA8jhtnnjRm1v-84" value="Vaccine_type" style="shape=table;startSize=30;container=1;collapsible=1;childLayout=tableLayout;fixedRows=1;rowLines=0;fontStyle=1;align=center;resizeLast=1;" vertex="1" parent="1">
          <mxGeometry x="680" y="-10" width="180" height="160" as="geometry" />
        </mxCell>
        <mxCell id="bM2ig-2bA8jhtnnjRm1v-85" value="" style="shape=partialRectangle;collapsible=0;dropTarget=0;pointerEvents=0;fillColor=none;top=0;left=0;bottom=1;right=0;points=[[0,0.5],[1,0.5]];portConstraint=eastwest;" vertex="1" parent="bM2ig-2bA8jhtnnjRm1v-84">
          <mxGeometry y="30" width="180" height="30" as="geometry" />
        </mxCell>
        <mxCell id="bM2ig-2bA8jhtnnjRm1v-86" value="PK" style="shape=partialRectangle;connectable=0;fillColor=none;top=0;left=0;bottom=0;right=0;fontStyle=1;overflow=hidden;" vertex="1" parent="bM2ig-2bA8jhtnnjRm1v-85">
          <mxGeometry width="30" height="30" as="geometry" />
        </mxCell>
        <mxCell id="bM2ig-2bA8jhtnnjRm1v-87" value="id int NOT NULL" style="shape=partialRectangle;connectable=0;fillColor=none;top=0;left=0;bottom=0;right=0;align=left;spacingLeft=6;fontStyle=5;overflow=hidden;" vertex="1" parent="bM2ig-2bA8jhtnnjRm1v-85">
          <mxGeometry x="30" width="150" height="30" as="geometry" />
        </mxCell>
        <mxCell id="bM2ig-2bA8jhtnnjRm1v-88" value="" style="shape=partialRectangle;collapsible=0;dropTarget=0;pointerEvents=0;fillColor=none;top=0;left=0;bottom=0;right=0;points=[[0,0.5],[1,0.5]];portConstraint=eastwest;" vertex="1" parent="bM2ig-2bA8jhtnnjRm1v-84">
          <mxGeometry y="60" width="180" height="30" as="geometry" />
        </mxCell>
        <mxCell id="bM2ig-2bA8jhtnnjRm1v-89" value="" style="shape=partialRectangle;connectable=0;fillColor=none;top=0;left=0;bottom=0;right=0;editable=1;overflow=hidden;" vertex="1" parent="bM2ig-2bA8jhtnnjRm1v-88">
          <mxGeometry width="30" height="30" as="geometry" />
        </mxCell>
        <mxCell id="bM2ig-2bA8jhtnnjRm1v-90" value="name varchar(255)" style="shape=partialRectangle;connectable=0;fillColor=none;top=0;left=0;bottom=0;right=0;align=left;spacingLeft=6;overflow=hidden;" vertex="1" parent="bM2ig-2bA8jhtnnjRm1v-88">
          <mxGeometry x="30" width="150" height="30" as="geometry" />
        </mxCell>
        <mxCell id="bM2ig-2bA8jhtnnjRm1v-91" value="" style="shape=partialRectangle;collapsible=0;dropTarget=0;pointerEvents=0;fillColor=none;top=0;left=0;bottom=0;right=0;points=[[0,0.5],[1,0.5]];portConstraint=eastwest;" vertex="1" parent="bM2ig-2bA8jhtnnjRm1v-84">
          <mxGeometry y="90" width="180" height="30" as="geometry" />
        </mxCell>
        <mxCell id="bM2ig-2bA8jhtnnjRm1v-92" value="" style="shape=partialRectangle;connectable=0;fillColor=none;top=0;left=0;bottom=0;right=0;editable=1;overflow=hidden;" vertex="1" parent="bM2ig-2bA8jhtnnjRm1v-91">
          <mxGeometry width="30" height="30" as="geometry" />
        </mxCell>
        <mxCell id="bM2ig-2bA8jhtnnjRm1v-93" value="" style="shape=partialRectangle;connectable=0;fillColor=none;top=0;left=0;bottom=0;right=0;align=left;spacingLeft=6;overflow=hidden;" vertex="1" parent="bM2ig-2bA8jhtnnjRm1v-91">
          <mxGeometry x="30" width="150" height="30" as="geometry" />
        </mxCell>
        <mxCell id="bM2ig-2bA8jhtnnjRm1v-94" value="" style="shape=partialRectangle;collapsible=0;dropTarget=0;pointerEvents=0;fillColor=none;top=0;left=0;bottom=0;right=0;points=[[0,0.5],[1,0.5]];portConstraint=eastwest;" vertex="1" parent="bM2ig-2bA8jhtnnjRm1v-84">
          <mxGeometry y="120" width="180" height="30" as="geometry" />
        </mxCell>
        <mxCell id="bM2ig-2bA8jhtnnjRm1v-95" value="" style="shape=partialRectangle;connectable=0;fillColor=none;top=0;left=0;bottom=0;right=0;editable=1;overflow=hidden;" vertex="1" parent="bM2ig-2bA8jhtnnjRm1v-94">
          <mxGeometry width="30" height="30" as="geometry" />
        </mxCell>
        <mxCell id="bM2ig-2bA8jhtnnjRm1v-96" value="" style="shape=partialRectangle;connectable=0;fillColor=none;top=0;left=0;bottom=0;right=0;align=left;spacingLeft=6;overflow=hidden;" vertex="1" parent="bM2ig-2bA8jhtnnjRm1v-94">
          <mxGeometry x="30" width="150" height="30" as="geometry" />
        </mxCell>
        <mxCell id="bM2ig-2bA8jhtnnjRm1v-101" value="Vaccination_type" style="shape=table;startSize=40;container=1;collapsible=1;childLayout=tableLayout;fixedRows=1;rowLines=0;fontStyle=1;align=center;resizeLast=1;" vertex="1" parent="1">
          <mxGeometry x="1020" y="100" width="180" height="160" as="geometry" />
        </mxCell>
        <mxCell id="bM2ig-2bA8jhtnnjRm1v-102" value="" style="shape=partialRectangle;collapsible=0;dropTarget=0;pointerEvents=0;fillColor=none;top=0;left=0;bottom=1;right=0;points=[[0,0.5],[1,0.5]];portConstraint=eastwest;" vertex="1" parent="bM2ig-2bA8jhtnnjRm1v-101">
          <mxGeometry y="40" width="180" height="30" as="geometry" />
        </mxCell>
        <mxCell id="bM2ig-2bA8jhtnnjRm1v-103" value="PK" style="shape=partialRectangle;connectable=0;fillColor=none;top=0;left=0;bottom=0;right=0;fontStyle=1;overflow=hidden;" vertex="1" parent="bM2ig-2bA8jhtnnjRm1v-102">
          <mxGeometry width="30" height="30" as="geometry" />
        </mxCell>
        <mxCell id="bM2ig-2bA8jhtnnjRm1v-104" value="id int NOT NULL" style="shape=partialRectangle;connectable=0;fillColor=none;top=0;left=0;bottom=0;right=0;align=left;spacingLeft=6;fontStyle=5;overflow=hidden;" vertex="1" parent="bM2ig-2bA8jhtnnjRm1v-102">
          <mxGeometry x="30" width="150" height="30" as="geometry" />
        </mxCell>
        <mxCell id="bM2ig-2bA8jhtnnjRm1v-105" value="" style="shape=partialRectangle;collapsible=0;dropTarget=0;pointerEvents=0;fillColor=none;top=0;left=0;bottom=0;right=0;points=[[0,0.5],[1,0.5]];portConstraint=eastwest;" vertex="1" parent="bM2ig-2bA8jhtnnjRm1v-101">
          <mxGeometry y="70" width="180" height="30" as="geometry" />
        </mxCell>
        <mxCell id="bM2ig-2bA8jhtnnjRm1v-106" value="" style="shape=partialRectangle;connectable=0;fillColor=none;top=0;left=0;bottom=0;right=0;editable=1;overflow=hidden;" vertex="1" parent="bM2ig-2bA8jhtnnjRm1v-105">
          <mxGeometry width="30" height="30" as="geometry" />
        </mxCell>
        <mxCell id="bM2ig-2bA8jhtnnjRm1v-107" value="name varchar(2550" style="shape=partialRectangle;connectable=0;fillColor=none;top=0;left=0;bottom=0;right=0;align=left;spacingLeft=6;overflow=hidden;" vertex="1" parent="bM2ig-2bA8jhtnnjRm1v-105">
          <mxGeometry x="30" width="150" height="30" as="geometry" />
        </mxCell>
        <mxCell id="bM2ig-2bA8jhtnnjRm1v-108" value="" style="shape=partialRectangle;collapsible=0;dropTarget=0;pointerEvents=0;fillColor=none;top=0;left=0;bottom=0;right=0;points=[[0,0.5],[1,0.5]];portConstraint=eastwest;" vertex="1" parent="bM2ig-2bA8jhtnnjRm1v-101">
          <mxGeometry y="100" width="180" height="30" as="geometry" />
        </mxCell>
        <mxCell id="bM2ig-2bA8jhtnnjRm1v-109" value="" style="shape=partialRectangle;connectable=0;fillColor=none;top=0;left=0;bottom=0;right=0;editable=1;overflow=hidden;" vertex="1" parent="bM2ig-2bA8jhtnnjRm1v-108">
          <mxGeometry width="30" height="30" as="geometry" />
        </mxCell>
        <mxCell id="bM2ig-2bA8jhtnnjRm1v-110" value="Row 2" style="shape=partialRectangle;connectable=0;fillColor=none;top=0;left=0;bottom=0;right=0;align=left;spacingLeft=6;overflow=hidden;" vertex="1" parent="bM2ig-2bA8jhtnnjRm1v-108">
          <mxGeometry x="30" width="150" height="30" as="geometry" />
        </mxCell>
        <mxCell id="bM2ig-2bA8jhtnnjRm1v-111" value="" style="shape=partialRectangle;collapsible=0;dropTarget=0;pointerEvents=0;fillColor=none;top=0;left=0;bottom=0;right=0;points=[[0,0.5],[1,0.5]];portConstraint=eastwest;" vertex="1" parent="bM2ig-2bA8jhtnnjRm1v-101">
          <mxGeometry y="130" width="180" height="30" as="geometry" />
        </mxCell>
        <mxCell id="bM2ig-2bA8jhtnnjRm1v-112" value="" style="shape=partialRectangle;connectable=0;fillColor=none;top=0;left=0;bottom=0;right=0;editable=1;overflow=hidden;" vertex="1" parent="bM2ig-2bA8jhtnnjRm1v-111">
          <mxGeometry width="30" height="30" as="geometry" />
        </mxCell>
        <mxCell id="bM2ig-2bA8jhtnnjRm1v-113" value="Row 3" style="shape=partialRectangle;connectable=0;fillColor=none;top=0;left=0;bottom=0;right=0;align=left;spacingLeft=6;overflow=hidden;" vertex="1" parent="bM2ig-2bA8jhtnnjRm1v-111">
          <mxGeometry x="30" width="150" height="30" as="geometry" />
        </mxCell>
        <mxCell id="bM2ig-2bA8jhtnnjRm1v-114" value="" style="edgeStyle=entityRelationEdgeStyle;fontSize=12;html=1;endArrow=ERoneToMany;startArrow=ERzeroToOne;entryX=0.5;entryY=0;entryDx=0;entryDy=0;exitX=0.5;exitY=1;exitDx=0;exitDy=0;" edge="1" parent="1" source="bM2ig-2bA8jhtnnjRm1v-84" target="bM2ig-2bA8jhtnnjRm1v-28">
          <mxGeometry width="100" height="100" relative="1" as="geometry">
            <mxPoint x="456" y="157" as="sourcePoint" />
            <mxPoint x="520" y="10" as="targetPoint" />
          </mxGeometry>
        </mxCell>
        <mxCell id="bM2ig-2bA8jhtnnjRm1v-115" value="" style="edgeStyle=entityRelationEdgeStyle;fontSize=12;html=1;endArrow=ERoneToMany;startArrow=ERzeroToOne;exitX=0.493;exitY=1.033;exitDx=0;exitDy=0;exitPerimeter=0;entryX=0.5;entryY=0;entryDx=0;entryDy=0;" edge="1" parent="1" source="bM2ig-2bA8jhtnnjRm1v-111" target="bM2ig-2bA8jhtnnjRm1v-116">
          <mxGeometry width="100" height="100" relative="1" as="geometry">
            <mxPoint x="560" y="85" as="sourcePoint" />
            <mxPoint x="660" y="370" as="targetPoint" />
          </mxGeometry>
        </mxCell>
        <mxCell id="bM2ig-2bA8jhtnnjRm1v-116" value="Vaccination" style="shape=table;startSize=30;container=1;collapsible=1;childLayout=tableLayout;fixedRows=1;rowLines=0;fontStyle=1;align=center;resizeLast=1;" vertex="1" parent="1">
          <mxGeometry x="620" y="420" width="220" height="365" as="geometry" />
        </mxCell>
        <mxCell id="bM2ig-2bA8jhtnnjRm1v-117" value="" style="shape=partialRectangle;collapsible=0;dropTarget=0;pointerEvents=0;fillColor=none;top=0;left=0;bottom=1;right=0;points=[[0,0.5],[1,0.5]];portConstraint=eastwest;" vertex="1" parent="bM2ig-2bA8jhtnnjRm1v-116">
          <mxGeometry y="30" width="220" height="30" as="geometry" />
        </mxCell>
        <mxCell id="bM2ig-2bA8jhtnnjRm1v-118" value="PK" style="shape=partialRectangle;connectable=0;fillColor=none;top=0;left=0;bottom=0;right=0;fontStyle=1;overflow=hidden;" vertex="1" parent="bM2ig-2bA8jhtnnjRm1v-117">
          <mxGeometry width="30" height="30" as="geometry" />
        </mxCell>
        <mxCell id="bM2ig-2bA8jhtnnjRm1v-119" value="id int NOT NULL" style="shape=partialRectangle;connectable=0;fillColor=none;top=0;left=0;bottom=0;right=0;align=left;spacingLeft=6;fontStyle=5;overflow=hidden;" vertex="1" parent="bM2ig-2bA8jhtnnjRm1v-117">
          <mxGeometry x="30" width="190" height="30" as="geometry" />
        </mxCell>
        <mxCell id="bM2ig-2bA8jhtnnjRm1v-135" value="" style="shape=partialRectangle;collapsible=0;dropTarget=0;pointerEvents=0;fillColor=none;top=0;left=0;bottom=0;right=0;points=[[0,0.5],[1,0.5]];portConstraint=eastwest;" vertex="1" parent="bM2ig-2bA8jhtnnjRm1v-116">
          <mxGeometry y="60" width="220" height="30" as="geometry" />
        </mxCell>
        <mxCell id="bM2ig-2bA8jhtnnjRm1v-136" value="FK1" style="shape=partialRectangle;connectable=0;fillColor=none;top=0;left=0;bottom=0;right=0;editable=1;overflow=hidden;" vertex="1" parent="bM2ig-2bA8jhtnnjRm1v-135">
          <mxGeometry width="30" height="30" as="geometry" />
        </mxCell>
        <mxCell id="bM2ig-2bA8jhtnnjRm1v-137" value="id_vaccine int NOT NULL" style="shape=partialRectangle;connectable=0;fillColor=none;top=0;left=0;bottom=0;right=0;align=left;spacingLeft=6;overflow=hidden;" vertex="1" parent="bM2ig-2bA8jhtnnjRm1v-135">
          <mxGeometry x="30" width="190" height="30" as="geometry" />
        </mxCell>
        <mxCell id="bM2ig-2bA8jhtnnjRm1v-138" value="" style="shape=partialRectangle;collapsible=0;dropTarget=0;pointerEvents=0;fillColor=none;top=0;left=0;bottom=0;right=0;points=[[0,0.5],[1,0.5]];portConstraint=eastwest;" vertex="1" parent="bM2ig-2bA8jhtnnjRm1v-116">
          <mxGeometry y="90" width="220" height="30" as="geometry" />
        </mxCell>
        <mxCell id="bM2ig-2bA8jhtnnjRm1v-139" value="FK2" style="shape=partialRectangle;connectable=0;fillColor=none;top=0;left=0;bottom=0;right=0;editable=1;overflow=hidden;" vertex="1" parent="bM2ig-2bA8jhtnnjRm1v-138">
          <mxGeometry width="30" height="30" as="geometry" />
        </mxCell>
        <mxCell id="bM2ig-2bA8jhtnnjRm1v-140" value="vaccination_type_id int NOT NULL" style="shape=partialRectangle;connectable=0;fillColor=none;top=0;left=0;bottom=0;right=0;align=left;spacingLeft=6;overflow=hidden;" vertex="1" parent="bM2ig-2bA8jhtnnjRm1v-138">
          <mxGeometry x="30" width="190" height="30" as="geometry" />
        </mxCell>
        <mxCell id="bM2ig-2bA8jhtnnjRm1v-123" value="" style="shape=partialRectangle;collapsible=0;dropTarget=0;pointerEvents=0;fillColor=none;top=0;left=0;bottom=0;right=0;points=[[0,0.5],[1,0.5]];portConstraint=eastwest;" vertex="1" parent="bM2ig-2bA8jhtnnjRm1v-116">
          <mxGeometry y="120" width="220" height="30" as="geometry" />
        </mxCell>
        <mxCell id="bM2ig-2bA8jhtnnjRm1v-124" value="" style="shape=partialRectangle;connectable=0;fillColor=none;top=0;left=0;bottom=0;right=0;editable=1;overflow=hidden;" vertex="1" parent="bM2ig-2bA8jhtnnjRm1v-123">
          <mxGeometry width="30" height="30" as="geometry" />
        </mxCell>
        <mxCell id="bM2ig-2bA8jhtnnjRm1v-125" value="end_time TIME()" style="shape=partialRectangle;connectable=0;fillColor=none;top=0;left=0;bottom=0;right=0;align=left;spacingLeft=6;overflow=hidden;" vertex="1" parent="bM2ig-2bA8jhtnnjRm1v-123">
          <mxGeometry x="30" width="190" height="30" as="geometry" />
        </mxCell>
        <mxCell id="bM2ig-2bA8jhtnnjRm1v-126" value="" style="shape=partialRectangle;collapsible=0;dropTarget=0;pointerEvents=0;fillColor=none;top=0;left=0;bottom=0;right=0;points=[[0,0.5],[1,0.5]];portConstraint=eastwest;" vertex="1" parent="bM2ig-2bA8jhtnnjRm1v-116">
          <mxGeometry y="150" width="220" height="30" as="geometry" />
        </mxCell>
        <mxCell id="bM2ig-2bA8jhtnnjRm1v-127" value="FK3" style="shape=partialRectangle;connectable=0;fillColor=none;top=0;left=0;bottom=0;right=0;editable=1;overflow=hidden;" vertex="1" parent="bM2ig-2bA8jhtnnjRm1v-126">
          <mxGeometry width="30" height="30" as="geometry" />
        </mxCell>
        <mxCell id="bM2ig-2bA8jhtnnjRm1v-128" value="location_id int NOT_NULL" style="shape=partialRectangle;connectable=0;fillColor=none;top=0;left=0;bottom=0;right=0;align=left;spacingLeft=6;overflow=hidden;" vertex="1" parent="bM2ig-2bA8jhtnnjRm1v-126">
          <mxGeometry x="30" width="190" height="30" as="geometry" />
        </mxCell>
        <mxCell id="bM2ig-2bA8jhtnnjRm1v-129" value="" style="shape=partialRectangle;collapsible=0;dropTarget=0;pointerEvents=0;fillColor=none;top=0;left=0;bottom=0;right=0;points=[[0,0.5],[1,0.5]];portConstraint=eastwest;" vertex="1" parent="bM2ig-2bA8jhtnnjRm1v-116">
          <mxGeometry y="180" width="220" height="30" as="geometry" />
        </mxCell>
        <mxCell id="bM2ig-2bA8jhtnnjRm1v-130" value="" style="shape=partialRectangle;connectable=0;fillColor=none;top=0;left=0;bottom=0;right=0;editable=1;overflow=hidden;" vertex="1" parent="bM2ig-2bA8jhtnnjRm1v-129">
          <mxGeometry width="30" height="30" as="geometry" />
        </mxCell>
        <mxCell id="bM2ig-2bA8jhtnnjRm1v-131" value="status boolean" style="shape=partialRectangle;connectable=0;fillColor=none;top=0;left=0;bottom=0;right=0;align=left;spacingLeft=6;overflow=hidden;" vertex="1" parent="bM2ig-2bA8jhtnnjRm1v-129">
          <mxGeometry x="30" width="190" height="30" as="geometry" />
        </mxCell>
        <mxCell id="bM2ig-2bA8jhtnnjRm1v-132" value="" style="shape=partialRectangle;collapsible=0;dropTarget=0;pointerEvents=0;fillColor=none;top=0;left=0;bottom=0;right=0;points=[[0,0.5],[1,0.5]];portConstraint=eastwest;" vertex="1" parent="bM2ig-2bA8jhtnnjRm1v-116">
          <mxGeometry y="210" width="220" height="40" as="geometry" />
        </mxCell>
        <mxCell id="bM2ig-2bA8jhtnnjRm1v-133" value="" style="shape=partialRectangle;connectable=0;fillColor=none;top=0;left=0;bottom=0;right=0;editable=1;overflow=hidden;" vertex="1" parent="bM2ig-2bA8jhtnnjRm1v-132">
          <mxGeometry width="30" height="40" as="geometry" />
        </mxCell>
        <mxCell id="bM2ig-2bA8jhtnnjRm1v-134" value="description varchar(255)" style="shape=partialRectangle;connectable=0;fillColor=none;top=0;left=0;bottom=0;right=0;align=left;spacingLeft=6;overflow=hidden;" vertex="1" parent="bM2ig-2bA8jhtnnjRm1v-132">
          <mxGeometry x="30" width="190" height="40" as="geometry" />
        </mxCell>
        <mxCell id="bM2ig-2bA8jhtnnjRm1v-120" value="" style="shape=partialRectangle;collapsible=0;dropTarget=0;pointerEvents=0;fillColor=none;top=0;left=0;bottom=0;right=0;points=[[0,0.5],[1,0.5]];portConstraint=eastwest;" vertex="1" parent="bM2ig-2bA8jhtnnjRm1v-116">
          <mxGeometry y="250" width="220" height="30" as="geometry" />
        </mxCell>
        <mxCell id="bM2ig-2bA8jhtnnjRm1v-121" value="" style="shape=partialRectangle;connectable=0;fillColor=none;top=0;left=0;bottom=0;right=0;editable=1;overflow=hidden;" vertex="1" parent="bM2ig-2bA8jhtnnjRm1v-120">
          <mxGeometry width="30" height="30" as="geometry" />
        </mxCell>
        <mxCell id="bM2ig-2bA8jhtnnjRm1v-122" value="start_time TIME()" style="shape=partialRectangle;connectable=0;fillColor=none;top=0;left=0;bottom=0;right=0;align=left;spacingLeft=6;overflow=hidden;" vertex="1" parent="bM2ig-2bA8jhtnnjRm1v-120">
          <mxGeometry x="30" width="190" height="30" as="geometry" />
        </mxCell>
        <mxCell id="bM2ig-2bA8jhtnnjRm1v-141" value="" style="shape=partialRectangle;collapsible=0;dropTarget=0;pointerEvents=0;fillColor=none;top=0;left=0;bottom=0;right=0;points=[[0,0.5],[1,0.5]];portConstraint=eastwest;" vertex="1" parent="bM2ig-2bA8jhtnnjRm1v-116">
          <mxGeometry y="280" width="220" height="30" as="geometry" />
        </mxCell>
        <mxCell id="bM2ig-2bA8jhtnnjRm1v-142" value="" style="shape=partialRectangle;connectable=0;fillColor=none;top=0;left=0;bottom=0;right=0;editable=1;overflow=hidden;" vertex="1" parent="bM2ig-2bA8jhtnnjRm1v-141">
          <mxGeometry width="30" height="30" as="geometry" />
        </mxCell>
        <mxCell id="bM2ig-2bA8jhtnnjRm1v-143" value="date Date" style="shape=partialRectangle;connectable=0;fillColor=none;top=0;left=0;bottom=0;right=0;align=left;spacingLeft=6;overflow=hidden;" vertex="1" parent="bM2ig-2bA8jhtnnjRm1v-141">
          <mxGeometry x="30" width="190" height="30" as="geometry" />
        </mxCell>
        <mxCell id="bM2ig-2bA8jhtnnjRm1v-144" value="Patient" style="shape=table;startSize=30;container=1;collapsible=1;childLayout=tableLayout;fixedRows=1;rowLines=0;fontStyle=1;align=center;resizeLast=1;" vertex="1" parent="1">
          <mxGeometry x="1300" y="415" width="180" height="295.0000000000002" as="geometry" />
        </mxCell>
        <mxCell id="bM2ig-2bA8jhtnnjRm1v-145" value="" style="shape=partialRectangle;collapsible=0;dropTarget=0;pointerEvents=0;fillColor=none;top=0;left=0;bottom=1;right=0;points=[[0,0.5],[1,0.5]];portConstraint=eastwest;" vertex="1" parent="bM2ig-2bA8jhtnnjRm1v-144">
          <mxGeometry y="30" width="180" height="50" as="geometry" />
        </mxCell>
        <mxCell id="bM2ig-2bA8jhtnnjRm1v-146" value="PK" style="shape=partialRectangle;connectable=0;fillColor=none;top=0;left=0;bottom=0;right=0;fontStyle=1;overflow=hidden;" vertex="1" parent="bM2ig-2bA8jhtnnjRm1v-145">
          <mxGeometry width="30" height="50" as="geometry" />
        </mxCell>
        <mxCell id="bM2ig-2bA8jhtnnjRm1v-147" value="id int NOT NULL" style="shape=partialRectangle;connectable=0;fillColor=none;top=0;left=0;bottom=0;right=0;align=left;spacingLeft=6;fontStyle=5;overflow=hidden;" vertex="1" parent="bM2ig-2bA8jhtnnjRm1v-145">
          <mxGeometry x="30" width="150" height="50" as="geometry" />
        </mxCell>
        <mxCell id="bM2ig-2bA8jhtnnjRm1v-148" value="" style="shape=partialRectangle;collapsible=0;dropTarget=0;pointerEvents=0;fillColor=none;top=0;left=0;bottom=0;right=0;points=[[0,0.5],[1,0.5]];portConstraint=eastwest;" vertex="1" parent="bM2ig-2bA8jhtnnjRm1v-144">
          <mxGeometry y="80" width="180" height="30" as="geometry" />
        </mxCell>
        <mxCell id="bM2ig-2bA8jhtnnjRm1v-149" value="" style="shape=partialRectangle;connectable=0;fillColor=none;top=0;left=0;bottom=0;right=0;editable=1;overflow=hidden;" vertex="1" parent="bM2ig-2bA8jhtnnjRm1v-148">
          <mxGeometry width="30" height="30" as="geometry" />
        </mxCell>
        <mxCell id="bM2ig-2bA8jhtnnjRm1v-150" value="name varchar(255)" style="shape=partialRectangle;connectable=0;fillColor=none;top=0;left=0;bottom=0;right=0;align=left;spacingLeft=6;overflow=hidden;" vertex="1" parent="bM2ig-2bA8jhtnnjRm1v-148">
          <mxGeometry x="30" width="150" height="30" as="geometry" />
        </mxCell>
        <mxCell id="bM2ig-2bA8jhtnnjRm1v-151" value="" style="shape=partialRectangle;collapsible=0;dropTarget=0;pointerEvents=0;fillColor=none;top=0;left=0;bottom=0;right=0;points=[[0,0.5],[1,0.5]];portConstraint=eastwest;" vertex="1" parent="bM2ig-2bA8jhtnnjRm1v-144">
          <mxGeometry y="110" width="180" height="30" as="geometry" />
        </mxCell>
        <mxCell id="bM2ig-2bA8jhtnnjRm1v-152" value="" style="shape=partialRectangle;connectable=0;fillColor=none;top=0;left=0;bottom=0;right=0;editable=1;overflow=hidden;" vertex="1" parent="bM2ig-2bA8jhtnnjRm1v-151">
          <mxGeometry width="30" height="30" as="geometry" />
        </mxCell>
        <mxCell id="bM2ig-2bA8jhtnnjRm1v-153" value="date_of_birth Date&#xa;" style="shape=partialRectangle;connectable=0;fillColor=none;top=0;left=0;bottom=0;right=0;align=left;spacingLeft=6;overflow=hidden;" vertex="1" parent="bM2ig-2bA8jhtnnjRm1v-151">
          <mxGeometry x="30" width="150" height="30" as="geometry" />
        </mxCell>
        <mxCell id="bM2ig-2bA8jhtnnjRm1v-154" value="" style="shape=partialRectangle;collapsible=0;dropTarget=0;pointerEvents=0;fillColor=none;top=0;left=0;bottom=0;right=0;points=[[0,0.5],[1,0.5]];portConstraint=eastwest;" vertex="1" parent="bM2ig-2bA8jhtnnjRm1v-144">
          <mxGeometry y="140" width="180" height="30" as="geometry" />
        </mxCell>
        <mxCell id="bM2ig-2bA8jhtnnjRm1v-155" value="" style="shape=partialRectangle;connectable=0;fillColor=none;top=0;left=0;bottom=0;right=0;editable=1;overflow=hidden;" vertex="1" parent="bM2ig-2bA8jhtnnjRm1v-154">
          <mxGeometry width="30" height="30" as="geometry" />
        </mxCell>
        <mxCell id="bM2ig-2bA8jhtnnjRm1v-156" value="gender varchar(50)" style="shape=partialRectangle;connectable=0;fillColor=none;top=0;left=0;bottom=0;right=0;align=left;spacingLeft=6;overflow=hidden;" vertex="1" parent="bM2ig-2bA8jhtnnjRm1v-154">
          <mxGeometry x="30" width="150" height="30" as="geometry" />
        </mxCell>
        <mxCell id="bM2ig-2bA8jhtnnjRm1v-157" value="" style="shape=partialRectangle;collapsible=0;dropTarget=0;pointerEvents=0;fillColor=none;top=0;left=0;bottom=0;right=0;points=[[0,0.5],[1,0.5]];portConstraint=eastwest;" vertex="1" parent="bM2ig-2bA8jhtnnjRm1v-144">
          <mxGeometry y="170" width="180" height="30" as="geometry" />
        </mxCell>
        <mxCell id="bM2ig-2bA8jhtnnjRm1v-158" value="" style="shape=partialRectangle;connectable=0;fillColor=none;top=0;left=0;bottom=0;right=0;editable=1;overflow=hidden;" vertex="1" parent="bM2ig-2bA8jhtnnjRm1v-157">
          <mxGeometry width="30" height="30" as="geometry" />
        </mxCell>
        <mxCell id="bM2ig-2bA8jhtnnjRm1v-159" value="guardian varchar(255)" style="shape=partialRectangle;connectable=0;fillColor=none;top=0;left=0;bottom=0;right=0;align=left;spacingLeft=6;overflow=hidden;" vertex="1" parent="bM2ig-2bA8jhtnnjRm1v-157">
          <mxGeometry x="30" width="150" height="30" as="geometry" />
        </mxCell>
        <mxCell id="bM2ig-2bA8jhtnnjRm1v-160" value="" style="shape=partialRectangle;collapsible=0;dropTarget=0;pointerEvents=0;fillColor=none;top=0;left=0;bottom=0;right=0;points=[[0,0.5],[1,0.5]];portConstraint=eastwest;" vertex="1" parent="bM2ig-2bA8jhtnnjRm1v-144">
          <mxGeometry y="200" width="180" height="30" as="geometry" />
        </mxCell>
        <mxCell id="bM2ig-2bA8jhtnnjRm1v-161" value="" style="shape=partialRectangle;connectable=0;fillColor=none;top=0;left=0;bottom=0;right=0;editable=1;overflow=hidden;" vertex="1" parent="bM2ig-2bA8jhtnnjRm1v-160">
          <mxGeometry width="30" height="30" as="geometry" />
        </mxCell>
        <mxCell id="bM2ig-2bA8jhtnnjRm1v-162" value="phone varchar(255)" style="shape=partialRectangle;connectable=0;fillColor=none;top=0;left=0;bottom=0;right=0;align=left;spacingLeft=6;overflow=hidden;" vertex="1" parent="bM2ig-2bA8jhtnnjRm1v-160">
          <mxGeometry x="30" width="150" height="30" as="geometry" />
        </mxCell>
        <mxCell id="bM2ig-2bA8jhtnnjRm1v-163" value="" style="shape=partialRectangle;collapsible=0;dropTarget=0;pointerEvents=0;fillColor=none;top=0;left=0;bottom=0;right=0;points=[[0,0.5],[1,0.5]];portConstraint=eastwest;" vertex="1" parent="bM2ig-2bA8jhtnnjRm1v-144">
          <mxGeometry y="230" width="180" height="30" as="geometry" />
        </mxCell>
        <mxCell id="bM2ig-2bA8jhtnnjRm1v-164" value="" style="shape=partialRectangle;connectable=0;fillColor=none;top=0;left=0;bottom=0;right=0;editable=1;overflow=hidden;" vertex="1" parent="bM2ig-2bA8jhtnnjRm1v-163">
          <mxGeometry width="30" height="30" as="geometry" />
        </mxCell>
        <mxCell id="bM2ig-2bA8jhtnnjRm1v-165" value="address varchar(255)" style="shape=partialRectangle;connectable=0;fillColor=none;top=0;left=0;bottom=0;right=0;align=left;spacingLeft=6;overflow=hidden;" vertex="1" parent="bM2ig-2bA8jhtnnjRm1v-163">
          <mxGeometry x="30" width="150" height="30" as="geometry" />
        </mxCell>
        <mxCell id="bM2ig-2bA8jhtnnjRm1v-282" value="" style="shape=partialRectangle;collapsible=0;dropTarget=0;pointerEvents=0;fillColor=none;top=0;left=0;bottom=0;right=0;points=[[0,0.5],[1,0.5]];portConstraint=eastwest;" vertex="1" parent="bM2ig-2bA8jhtnnjRm1v-144">
          <mxGeometry y="260" width="180" height="25" as="geometry" />
        </mxCell>
        <mxCell id="bM2ig-2bA8jhtnnjRm1v-283" value="FK2" style="shape=partialRectangle;connectable=0;fillColor=none;top=0;left=0;bottom=0;right=0;editable=1;overflow=hidden;" vertex="1" parent="bM2ig-2bA8jhtnnjRm1v-282">
          <mxGeometry width="30" height="25" as="geometry" />
        </mxCell>
        <mxCell id="bM2ig-2bA8jhtnnjRm1v-284" value="account_id int" style="shape=partialRectangle;connectable=0;fillColor=none;top=0;left=0;bottom=0;right=0;align=left;spacingLeft=6;overflow=hidden;" vertex="1" parent="bM2ig-2bA8jhtnnjRm1v-282">
          <mxGeometry x="30" width="150" height="25" as="geometry" />
        </mxCell>
        <mxCell id="bM2ig-2bA8jhtnnjRm1v-179" value="Vaccination_history" style="shape=table;startSize=30;container=1;collapsible=1;childLayout=tableLayout;fixedRows=1;rowLines=0;fontStyle=1;align=center;resizeLast=1;" vertex="1" parent="1">
          <mxGeometry x="940" y="415" width="280" height="220" as="geometry" />
        </mxCell>
        <mxCell id="bM2ig-2bA8jhtnnjRm1v-180" value="" style="shape=partialRectangle;collapsible=0;dropTarget=0;pointerEvents=0;fillColor=none;top=0;left=0;bottom=0;right=0;points=[[0,0.5],[1,0.5]];portConstraint=eastwest;" vertex="1" parent="bM2ig-2bA8jhtnnjRm1v-179">
          <mxGeometry y="30" width="280" height="30" as="geometry" />
        </mxCell>
        <mxCell id="bM2ig-2bA8jhtnnjRm1v-181" value="PK,FK1" style="shape=partialRectangle;connectable=0;fillColor=none;top=0;left=0;bottom=0;right=0;fontStyle=1;overflow=hidden;" vertex="1" parent="bM2ig-2bA8jhtnnjRm1v-180">
          <mxGeometry width="60" height="30" as="geometry" />
        </mxCell>
        <mxCell id="bM2ig-2bA8jhtnnjRm1v-182" value="vacination_id int NOTNULL" style="shape=partialRectangle;connectable=0;fillColor=none;top=0;left=0;bottom=0;right=0;align=left;spacingLeft=6;fontStyle=5;overflow=hidden;" vertex="1" parent="bM2ig-2bA8jhtnnjRm1v-180">
          <mxGeometry x="60" width="220" height="30" as="geometry" />
        </mxCell>
        <mxCell id="bM2ig-2bA8jhtnnjRm1v-183" value="" style="shape=partialRectangle;collapsible=0;dropTarget=0;pointerEvents=0;fillColor=none;top=0;left=0;bottom=1;right=0;points=[[0,0.5],[1,0.5]];portConstraint=eastwest;" vertex="1" parent="bM2ig-2bA8jhtnnjRm1v-179">
          <mxGeometry y="60" width="280" height="30" as="geometry" />
        </mxCell>
        <mxCell id="bM2ig-2bA8jhtnnjRm1v-184" value="PK,FK2" style="shape=partialRectangle;connectable=0;fillColor=none;top=0;left=0;bottom=0;right=0;fontStyle=1;overflow=hidden;" vertex="1" parent="bM2ig-2bA8jhtnnjRm1v-183">
          <mxGeometry width="60" height="30" as="geometry" />
        </mxCell>
        <mxCell id="bM2ig-2bA8jhtnnjRm1v-185" value="patient_id int NOT NULL" style="shape=partialRectangle;connectable=0;fillColor=none;top=0;left=0;bottom=0;right=0;align=left;spacingLeft=6;fontStyle=5;overflow=hidden;" vertex="1" parent="bM2ig-2bA8jhtnnjRm1v-183">
          <mxGeometry x="60" width="220" height="30" as="geometry" />
        </mxCell>
        <mxCell id="bM2ig-2bA8jhtnnjRm1v-186" value="" style="shape=partialRectangle;collapsible=0;dropTarget=0;pointerEvents=0;fillColor=none;top=0;left=0;bottom=0;right=0;points=[[0,0.5],[1,0.5]];portConstraint=eastwest;" vertex="1" parent="bM2ig-2bA8jhtnnjRm1v-179">
          <mxGeometry y="90" width="280" height="30" as="geometry" />
        </mxCell>
        <mxCell id="bM2ig-2bA8jhtnnjRm1v-187" value="" style="shape=partialRectangle;connectable=0;fillColor=none;top=0;left=0;bottom=0;right=0;editable=1;overflow=hidden;" vertex="1" parent="bM2ig-2bA8jhtnnjRm1v-186">
          <mxGeometry width="60" height="30" as="geometry" />
        </mxCell>
        <mxCell id="bM2ig-2bA8jhtnnjRm1v-188" value="status boolean" style="shape=partialRectangle;connectable=0;fillColor=none;top=0;left=0;bottom=0;right=0;align=left;spacingLeft=6;overflow=hidden;" vertex="1" parent="bM2ig-2bA8jhtnnjRm1v-186">
          <mxGeometry x="60" width="220" height="30" as="geometry" />
        </mxCell>
        <mxCell id="bM2ig-2bA8jhtnnjRm1v-189" value="" style="shape=partialRectangle;collapsible=0;dropTarget=0;pointerEvents=0;fillColor=none;top=0;left=0;bottom=0;right=0;points=[[0,0.5],[1,0.5]];portConstraint=eastwest;" vertex="1" parent="bM2ig-2bA8jhtnnjRm1v-179">
          <mxGeometry y="120" width="280" height="30" as="geometry" />
        </mxCell>
        <mxCell id="bM2ig-2bA8jhtnnjRm1v-190" value="" style="shape=partialRectangle;connectable=0;fillColor=none;top=0;left=0;bottom=0;right=0;editable=1;overflow=hidden;" vertex="1" parent="bM2ig-2bA8jhtnnjRm1v-189">
          <mxGeometry width="60" height="30" as="geometry" />
        </mxCell>
        <mxCell id="bM2ig-2bA8jhtnnjRm1v-191" value="pre-injection_status varchar(255)" style="shape=partialRectangle;connectable=0;fillColor=none;top=0;left=0;bottom=0;right=0;align=left;spacingLeft=6;overflow=hidden;" vertex="1" parent="bM2ig-2bA8jhtnnjRm1v-189">
          <mxGeometry x="60" width="220" height="30" as="geometry" />
        </mxCell>
        <mxCell id="bM2ig-2bA8jhtnnjRm1v-206" value="" style="shape=partialRectangle;collapsible=0;dropTarget=0;pointerEvents=0;fillColor=none;top=0;left=0;bottom=0;right=0;points=[[0,0.5],[1,0.5]];portConstraint=eastwest;" vertex="1" parent="bM2ig-2bA8jhtnnjRm1v-179">
          <mxGeometry y="150" width="280" height="30" as="geometry" />
        </mxCell>
        <mxCell id="bM2ig-2bA8jhtnnjRm1v-207" value="" style="shape=partialRectangle;connectable=0;fillColor=none;top=0;left=0;bottom=0;right=0;editable=1;overflow=hidden;" vertex="1" parent="bM2ig-2bA8jhtnnjRm1v-206">
          <mxGeometry width="60" height="30" as="geometry" />
        </mxCell>
        <mxCell id="bM2ig-2bA8jhtnnjRm1v-208" value="dosage double" style="shape=partialRectangle;connectable=0;fillColor=none;top=0;left=0;bottom=0;right=0;align=left;spacingLeft=6;overflow=hidden;" vertex="1" parent="bM2ig-2bA8jhtnnjRm1v-206">
          <mxGeometry x="60" width="220" height="30" as="geometry" />
        </mxCell>
        <mxCell id="bM2ig-2bA8jhtnnjRm1v-209" value="" style="shape=partialRectangle;collapsible=0;dropTarget=0;pointerEvents=0;fillColor=none;top=0;left=0;bottom=0;right=0;points=[[0,0.5],[1,0.5]];portConstraint=eastwest;" vertex="1" parent="bM2ig-2bA8jhtnnjRm1v-179">
          <mxGeometry y="180" width="280" height="30" as="geometry" />
        </mxCell>
        <mxCell id="bM2ig-2bA8jhtnnjRm1v-210" value="" style="shape=partialRectangle;connectable=0;fillColor=none;top=0;left=0;bottom=0;right=0;editable=1;overflow=hidden;" vertex="1" parent="bM2ig-2bA8jhtnnjRm1v-209">
          <mxGeometry width="60" height="30" as="geometry" />
        </mxCell>
        <mxCell id="bM2ig-2bA8jhtnnjRm1v-211" value="after_injection_status varchar(255)" style="shape=partialRectangle;connectable=0;fillColor=none;top=0;left=0;bottom=0;right=0;align=left;spacingLeft=6;overflow=hidden;" vertex="1" parent="bM2ig-2bA8jhtnnjRm1v-209">
          <mxGeometry x="60" width="220" height="30" as="geometry" />
        </mxCell>
        <mxCell id="bM2ig-2bA8jhtnnjRm1v-193" value="Employee" style="shape=table;startSize=30;container=1;collapsible=1;childLayout=tableLayout;fixedRows=1;rowLines=0;fontStyle=1;align=center;resizeLast=1;" vertex="1" parent="1">
          <mxGeometry x="980" y="725" width="180" height="280" as="geometry" />
        </mxCell>
        <mxCell id="bM2ig-2bA8jhtnnjRm1v-194" value="" style="shape=partialRectangle;collapsible=0;dropTarget=0;pointerEvents=0;fillColor=none;top=0;left=0;bottom=1;right=0;points=[[0,0.5],[1,0.5]];portConstraint=eastwest;" vertex="1" parent="bM2ig-2bA8jhtnnjRm1v-193">
          <mxGeometry y="30" width="180" height="30" as="geometry" />
        </mxCell>
        <mxCell id="bM2ig-2bA8jhtnnjRm1v-195" value="PK" style="shape=partialRectangle;connectable=0;fillColor=none;top=0;left=0;bottom=0;right=0;fontStyle=1;overflow=hidden;" vertex="1" parent="bM2ig-2bA8jhtnnjRm1v-194">
          <mxGeometry width="30" height="30" as="geometry" />
        </mxCell>
        <mxCell id="bM2ig-2bA8jhtnnjRm1v-196" value="id int NOT NULL" style="shape=partialRectangle;connectable=0;fillColor=none;top=0;left=0;bottom=0;right=0;align=left;spacingLeft=6;fontStyle=5;overflow=hidden;" vertex="1" parent="bM2ig-2bA8jhtnnjRm1v-194">
          <mxGeometry x="30" width="150" height="30" as="geometry" />
        </mxCell>
        <mxCell id="bM2ig-2bA8jhtnnjRm1v-197" value="" style="shape=partialRectangle;collapsible=0;dropTarget=0;pointerEvents=0;fillColor=none;top=0;left=0;bottom=0;right=0;points=[[0,0.5],[1,0.5]];portConstraint=eastwest;" vertex="1" parent="bM2ig-2bA8jhtnnjRm1v-193">
          <mxGeometry y="60" width="180" height="30" as="geometry" />
        </mxCell>
        <mxCell id="bM2ig-2bA8jhtnnjRm1v-198" value="FK1" style="shape=partialRectangle;connectable=0;fillColor=none;top=0;left=0;bottom=0;right=0;editable=1;overflow=hidden;" vertex="1" parent="bM2ig-2bA8jhtnnjRm1v-197">
          <mxGeometry width="30" height="30" as="geometry" />
        </mxCell>
        <mxCell id="bM2ig-2bA8jhtnnjRm1v-199" value="role_id int NOT NULL" style="shape=partialRectangle;connectable=0;fillColor=none;top=0;left=0;bottom=0;right=0;align=left;spacingLeft=6;overflow=hidden;" vertex="1" parent="bM2ig-2bA8jhtnnjRm1v-197">
          <mxGeometry x="30" width="150" height="30" as="geometry" />
        </mxCell>
        <mxCell id="bM2ig-2bA8jhtnnjRm1v-200" value="" style="shape=partialRectangle;collapsible=0;dropTarget=0;pointerEvents=0;fillColor=none;top=0;left=0;bottom=0;right=0;points=[[0,0.5],[1,0.5]];portConstraint=eastwest;" vertex="1" parent="bM2ig-2bA8jhtnnjRm1v-193">
          <mxGeometry y="90" width="180" height="30" as="geometry" />
        </mxCell>
        <mxCell id="bM2ig-2bA8jhtnnjRm1v-201" value="Fk2" style="shape=partialRectangle;connectable=0;fillColor=none;top=0;left=0;bottom=0;right=0;editable=1;overflow=hidden;" vertex="1" parent="bM2ig-2bA8jhtnnjRm1v-200">
          <mxGeometry width="30" height="30" as="geometry" />
        </mxCell>
        <mxCell id="bM2ig-2bA8jhtnnjRm1v-202" value="position_id int NOT NULL" style="shape=partialRectangle;connectable=0;fillColor=none;top=0;left=0;bottom=0;right=0;align=left;spacingLeft=6;overflow=hidden;" vertex="1" parent="bM2ig-2bA8jhtnnjRm1v-200">
          <mxGeometry x="30" width="150" height="30" as="geometry" />
        </mxCell>
        <mxCell id="bM2ig-2bA8jhtnnjRm1v-203" value="" style="shape=partialRectangle;collapsible=0;dropTarget=0;pointerEvents=0;fillColor=none;top=0;left=0;bottom=0;right=0;points=[[0,0.5],[1,0.5]];portConstraint=eastwest;" vertex="1" parent="bM2ig-2bA8jhtnnjRm1v-193">
          <mxGeometry y="120" width="180" height="30" as="geometry" />
        </mxCell>
        <mxCell id="bM2ig-2bA8jhtnnjRm1v-204" value="" style="shape=partialRectangle;connectable=0;fillColor=none;top=0;left=0;bottom=0;right=0;editable=1;overflow=hidden;" vertex="1" parent="bM2ig-2bA8jhtnnjRm1v-203">
          <mxGeometry width="30" height="30" as="geometry" />
        </mxCell>
        <mxCell id="bM2ig-2bA8jhtnnjRm1v-205" value="name varchar(255)" style="shape=partialRectangle;connectable=0;fillColor=none;top=0;left=0;bottom=0;right=0;align=left;spacingLeft=6;overflow=hidden;" vertex="1" parent="bM2ig-2bA8jhtnnjRm1v-203">
          <mxGeometry x="30" width="150" height="30" as="geometry" />
        </mxCell>
        <mxCell id="bM2ig-2bA8jhtnnjRm1v-212" value="" style="shape=partialRectangle;collapsible=0;dropTarget=0;pointerEvents=0;fillColor=none;top=0;left=0;bottom=0;right=0;points=[[0,0.5],[1,0.5]];portConstraint=eastwest;" vertex="1" parent="bM2ig-2bA8jhtnnjRm1v-193">
          <mxGeometry y="150" width="180" height="30" as="geometry" />
        </mxCell>
        <mxCell id="bM2ig-2bA8jhtnnjRm1v-213" value="" style="shape=partialRectangle;connectable=0;fillColor=none;top=0;left=0;bottom=0;right=0;editable=1;overflow=hidden;" vertex="1" parent="bM2ig-2bA8jhtnnjRm1v-212">
          <mxGeometry width="30" height="30" as="geometry" />
        </mxCell>
        <mxCell id="bM2ig-2bA8jhtnnjRm1v-214" value="date_of_birth Date" style="shape=partialRectangle;connectable=0;fillColor=none;top=0;left=0;bottom=0;right=0;align=left;spacingLeft=6;overflow=hidden;" vertex="1" parent="bM2ig-2bA8jhtnnjRm1v-212">
          <mxGeometry x="30" width="150" height="30" as="geometry" />
        </mxCell>
        <mxCell id="bM2ig-2bA8jhtnnjRm1v-215" value="" style="shape=partialRectangle;collapsible=0;dropTarget=0;pointerEvents=0;fillColor=none;top=0;left=0;bottom=0;right=0;points=[[0,0.5],[1,0.5]];portConstraint=eastwest;" vertex="1" parent="bM2ig-2bA8jhtnnjRm1v-193">
          <mxGeometry y="180" width="180" height="30" as="geometry" />
        </mxCell>
        <mxCell id="bM2ig-2bA8jhtnnjRm1v-216" value="" style="shape=partialRectangle;connectable=0;fillColor=none;top=0;left=0;bottom=0;right=0;editable=1;overflow=hidden;" vertex="1" parent="bM2ig-2bA8jhtnnjRm1v-215">
          <mxGeometry width="30" height="30" as="geometry" />
        </mxCell>
        <mxCell id="bM2ig-2bA8jhtnnjRm1v-217" value="id_card varchar" style="shape=partialRectangle;connectable=0;fillColor=none;top=0;left=0;bottom=0;right=0;align=left;spacingLeft=6;overflow=hidden;" vertex="1" parent="bM2ig-2bA8jhtnnjRm1v-215">
          <mxGeometry x="30" width="150" height="30" as="geometry" />
        </mxCell>
        <mxCell id="bM2ig-2bA8jhtnnjRm1v-218" value="" style="shape=partialRectangle;collapsible=0;dropTarget=0;pointerEvents=0;fillColor=none;top=0;left=0;bottom=0;right=0;points=[[0,0.5],[1,0.5]];portConstraint=eastwest;" vertex="1" parent="bM2ig-2bA8jhtnnjRm1v-193">
          <mxGeometry y="210" width="180" height="30" as="geometry" />
        </mxCell>
        <mxCell id="bM2ig-2bA8jhtnnjRm1v-219" value="" style="shape=partialRectangle;connectable=0;fillColor=none;top=0;left=0;bottom=0;right=0;editable=1;overflow=hidden;" vertex="1" parent="bM2ig-2bA8jhtnnjRm1v-218">
          <mxGeometry width="30" height="30" as="geometry" />
        </mxCell>
        <mxCell id="bM2ig-2bA8jhtnnjRm1v-220" value="phone varchar" style="shape=partialRectangle;connectable=0;fillColor=none;top=0;left=0;bottom=0;right=0;align=left;spacingLeft=6;overflow=hidden;" vertex="1" parent="bM2ig-2bA8jhtnnjRm1v-218">
          <mxGeometry x="30" width="150" height="30" as="geometry" />
        </mxCell>
        <mxCell id="bM2ig-2bA8jhtnnjRm1v-221" value="" style="shape=partialRectangle;collapsible=0;dropTarget=0;pointerEvents=0;fillColor=none;top=0;left=0;bottom=0;right=0;points=[[0,0.5],[1,0.5]];portConstraint=eastwest;" vertex="1" parent="bM2ig-2bA8jhtnnjRm1v-193">
          <mxGeometry y="240" width="180" height="30" as="geometry" />
        </mxCell>
        <mxCell id="bM2ig-2bA8jhtnnjRm1v-222" value="" style="shape=partialRectangle;connectable=0;fillColor=none;top=0;left=0;bottom=0;right=0;editable=1;overflow=hidden;" vertex="1" parent="bM2ig-2bA8jhtnnjRm1v-221">
          <mxGeometry width="30" height="30" as="geometry" />
        </mxCell>
        <mxCell id="bM2ig-2bA8jhtnnjRm1v-223" value="address varchar" style="shape=partialRectangle;connectable=0;fillColor=none;top=0;left=0;bottom=0;right=0;align=left;spacingLeft=6;overflow=hidden;" vertex="1" parent="bM2ig-2bA8jhtnnjRm1v-221">
          <mxGeometry x="30" width="150" height="30" as="geometry" />
        </mxCell>
        <mxCell id="bM2ig-2bA8jhtnnjRm1v-224" value="Account" style="shape=table;startSize=30;container=1;collapsible=1;childLayout=tableLayout;fixedRows=1;rowLines=0;fontStyle=1;align=center;resizeLast=1;" vertex="1" parent="1">
          <mxGeometry x="1300" y="790" width="210" height="150" as="geometry" />
        </mxCell>
        <mxCell id="bM2ig-2bA8jhtnnjRm1v-225" value="" style="shape=partialRectangle;collapsible=0;dropTarget=0;pointerEvents=0;fillColor=none;top=0;left=0;bottom=1;right=0;points=[[0,0.5],[1,0.5]];portConstraint=eastwest;" vertex="1" parent="bM2ig-2bA8jhtnnjRm1v-224">
          <mxGeometry y="30" width="210" height="30" as="geometry" />
        </mxCell>
        <mxCell id="bM2ig-2bA8jhtnnjRm1v-226" value="PK" style="shape=partialRectangle;connectable=0;fillColor=none;top=0;left=0;bottom=0;right=0;fontStyle=1;overflow=hidden;" vertex="1" parent="bM2ig-2bA8jhtnnjRm1v-225">
          <mxGeometry width="30" height="30" as="geometry" />
        </mxCell>
        <mxCell id="bM2ig-2bA8jhtnnjRm1v-227" value="id int NOT NULL" style="shape=partialRectangle;connectable=0;fillColor=none;top=0;left=0;bottom=0;right=0;align=left;spacingLeft=6;fontStyle=5;overflow=hidden;" vertex="1" parent="bM2ig-2bA8jhtnnjRm1v-225">
          <mxGeometry x="30" width="180" height="30" as="geometry" />
        </mxCell>
        <mxCell id="bM2ig-2bA8jhtnnjRm1v-228" value="" style="shape=partialRectangle;collapsible=0;dropTarget=0;pointerEvents=0;fillColor=none;top=0;left=0;bottom=0;right=0;points=[[0,0.5],[1,0.5]];portConstraint=eastwest;" vertex="1" parent="bM2ig-2bA8jhtnnjRm1v-224">
          <mxGeometry y="60" width="210" height="30" as="geometry" />
        </mxCell>
        <mxCell id="bM2ig-2bA8jhtnnjRm1v-229" value="" style="shape=partialRectangle;connectable=0;fillColor=none;top=0;left=0;bottom=0;right=0;editable=1;overflow=hidden;" vertex="1" parent="bM2ig-2bA8jhtnnjRm1v-228">
          <mxGeometry width="30" height="30" as="geometry" />
        </mxCell>
        <mxCell id="bM2ig-2bA8jhtnnjRm1v-230" value="name varchar(255)" style="shape=partialRectangle;connectable=0;fillColor=none;top=0;left=0;bottom=0;right=0;align=left;spacingLeft=6;overflow=hidden;" vertex="1" parent="bM2ig-2bA8jhtnnjRm1v-228">
          <mxGeometry x="30" width="180" height="30" as="geometry" />
        </mxCell>
        <mxCell id="bM2ig-2bA8jhtnnjRm1v-231" value="" style="shape=partialRectangle;collapsible=0;dropTarget=0;pointerEvents=0;fillColor=none;top=0;left=0;bottom=0;right=0;points=[[0,0.5],[1,0.5]];portConstraint=eastwest;" vertex="1" parent="bM2ig-2bA8jhtnnjRm1v-224">
          <mxGeometry y="90" width="210" height="30" as="geometry" />
        </mxCell>
        <mxCell id="bM2ig-2bA8jhtnnjRm1v-232" value="" style="shape=partialRectangle;connectable=0;fillColor=none;top=0;left=0;bottom=0;right=0;editable=1;overflow=hidden;" vertex="1" parent="bM2ig-2bA8jhtnnjRm1v-231">
          <mxGeometry width="30" height="30" as="geometry" />
        </mxCell>
        <mxCell id="bM2ig-2bA8jhtnnjRm1v-233" value="encrypt_password varchar(255)" style="shape=partialRectangle;connectable=0;fillColor=none;top=0;left=0;bottom=0;right=0;align=left;spacingLeft=6;overflow=hidden;" vertex="1" parent="bM2ig-2bA8jhtnnjRm1v-231">
          <mxGeometry x="30" width="180" height="30" as="geometry" />
        </mxCell>
        <mxCell id="bM2ig-2bA8jhtnnjRm1v-234" value="" style="shape=partialRectangle;collapsible=0;dropTarget=0;pointerEvents=0;fillColor=none;top=0;left=0;bottom=0;right=0;points=[[0,0.5],[1,0.5]];portConstraint=eastwest;" vertex="1" parent="bM2ig-2bA8jhtnnjRm1v-224">
          <mxGeometry y="120" width="210" height="30" as="geometry" />
        </mxCell>
        <mxCell id="bM2ig-2bA8jhtnnjRm1v-235" value="" style="shape=partialRectangle;connectable=0;fillColor=none;top=0;left=0;bottom=0;right=0;editable=1;overflow=hidden;" vertex="1" parent="bM2ig-2bA8jhtnnjRm1v-234">
          <mxGeometry width="30" height="30" as="geometry" />
        </mxCell>
        <mxCell id="bM2ig-2bA8jhtnnjRm1v-236" value="" style="shape=partialRectangle;connectable=0;fillColor=none;top=0;left=0;bottom=0;right=0;align=left;spacingLeft=6;overflow=hidden;" vertex="1" parent="bM2ig-2bA8jhtnnjRm1v-234">
          <mxGeometry x="30" width="180" height="30" as="geometry" />
        </mxCell>
        <mxCell id="bM2ig-2bA8jhtnnjRm1v-237" value="Role" style="shape=table;startSize=30;container=1;collapsible=1;childLayout=tableLayout;fixedRows=1;rowLines=0;fontStyle=1;align=center;resizeLast=1;" vertex="1" parent="1">
          <mxGeometry x="930" y="1190" width="210" height="140" as="geometry" />
        </mxCell>
        <mxCell id="bM2ig-2bA8jhtnnjRm1v-238" value="" style="shape=partialRectangle;collapsible=0;dropTarget=0;pointerEvents=0;fillColor=none;top=0;left=0;bottom=1;right=0;points=[[0,0.5],[1,0.5]];portConstraint=eastwest;" vertex="1" parent="bM2ig-2bA8jhtnnjRm1v-237">
          <mxGeometry y="30" width="210" height="30" as="geometry" />
        </mxCell>
        <mxCell id="bM2ig-2bA8jhtnnjRm1v-239" value="PK" style="shape=partialRectangle;connectable=0;fillColor=none;top=0;left=0;bottom=0;right=0;fontStyle=1;overflow=hidden;" vertex="1" parent="bM2ig-2bA8jhtnnjRm1v-238">
          <mxGeometry width="30" height="30" as="geometry" />
        </mxCell>
        <mxCell id="bM2ig-2bA8jhtnnjRm1v-240" value="id int NOT_NULL" style="shape=partialRectangle;connectable=0;fillColor=none;top=0;left=0;bottom=0;right=0;align=left;spacingLeft=6;fontStyle=5;overflow=hidden;" vertex="1" parent="bM2ig-2bA8jhtnnjRm1v-238">
          <mxGeometry x="30" width="180" height="30" as="geometry" />
        </mxCell>
        <mxCell id="bM2ig-2bA8jhtnnjRm1v-241" value="" style="shape=partialRectangle;collapsible=0;dropTarget=0;pointerEvents=0;fillColor=none;top=0;left=0;bottom=0;right=0;points=[[0,0.5],[1,0.5]];portConstraint=eastwest;" vertex="1" parent="bM2ig-2bA8jhtnnjRm1v-237">
          <mxGeometry y="60" width="210" height="30" as="geometry" />
        </mxCell>
        <mxCell id="bM2ig-2bA8jhtnnjRm1v-242" value="" style="shape=partialRectangle;connectable=0;fillColor=none;top=0;left=0;bottom=0;right=0;editable=1;overflow=hidden;" vertex="1" parent="bM2ig-2bA8jhtnnjRm1v-241">
          <mxGeometry width="30" height="30" as="geometry" />
        </mxCell>
        <mxCell id="bM2ig-2bA8jhtnnjRm1v-243" value="Name" style="shape=partialRectangle;connectable=0;fillColor=none;top=0;left=0;bottom=0;right=0;align=left;spacingLeft=6;overflow=hidden;" vertex="1" parent="bM2ig-2bA8jhtnnjRm1v-241">
          <mxGeometry x="30" width="180" height="30" as="geometry" />
        </mxCell>
        <mxCell id="bM2ig-2bA8jhtnnjRm1v-244" value="" style="shape=partialRectangle;collapsible=0;dropTarget=0;pointerEvents=0;fillColor=none;top=0;left=0;bottom=0;right=0;points=[[0,0.5],[1,0.5]];portConstraint=eastwest;" vertex="1" parent="bM2ig-2bA8jhtnnjRm1v-237">
          <mxGeometry y="90" width="210" height="30" as="geometry" />
        </mxCell>
        <mxCell id="bM2ig-2bA8jhtnnjRm1v-245" value="" style="shape=partialRectangle;connectable=0;fillColor=none;top=0;left=0;bottom=0;right=0;editable=1;overflow=hidden;" vertex="1" parent="bM2ig-2bA8jhtnnjRm1v-244">
          <mxGeometry width="30" height="30" as="geometry" />
        </mxCell>
        <mxCell id="bM2ig-2bA8jhtnnjRm1v-246" value="" style="shape=partialRectangle;connectable=0;fillColor=none;top=0;left=0;bottom=0;right=0;align=left;spacingLeft=6;overflow=hidden;" vertex="1" parent="bM2ig-2bA8jhtnnjRm1v-244">
          <mxGeometry x="30" width="180" height="30" as="geometry" />
        </mxCell>
        <mxCell id="bM2ig-2bA8jhtnnjRm1v-247" value="" style="shape=partialRectangle;collapsible=0;dropTarget=0;pointerEvents=0;fillColor=none;top=0;left=0;bottom=0;right=0;points=[[0,0.5],[1,0.5]];portConstraint=eastwest;" vertex="1" parent="bM2ig-2bA8jhtnnjRm1v-237">
          <mxGeometry y="120" width="210" height="20" as="geometry" />
        </mxCell>
        <mxCell id="bM2ig-2bA8jhtnnjRm1v-248" value="" style="shape=partialRectangle;connectable=0;fillColor=none;top=0;left=0;bottom=0;right=0;editable=1;overflow=hidden;" vertex="1" parent="bM2ig-2bA8jhtnnjRm1v-247">
          <mxGeometry width="30" height="20" as="geometry" />
        </mxCell>
        <mxCell id="bM2ig-2bA8jhtnnjRm1v-249" value="" style="shape=partialRectangle;connectable=0;fillColor=none;top=0;left=0;bottom=0;right=0;align=left;spacingLeft=6;overflow=hidden;" vertex="1" parent="bM2ig-2bA8jhtnnjRm1v-247">
          <mxGeometry x="30" width="180" height="20" as="geometry" />
        </mxCell>
        <mxCell id="bM2ig-2bA8jhtnnjRm1v-250" value="account_role" style="shape=table;startSize=30;container=1;collapsible=1;childLayout=tableLayout;fixedRows=1;rowLines=0;fontStyle=1;align=center;resizeLast=1;" vertex="1" parent="1">
          <mxGeometry x="1340" y="1050" width="210" height="150.00000000000023" as="geometry" />
        </mxCell>
        <mxCell id="bM2ig-2bA8jhtnnjRm1v-251" value="" style="shape=partialRectangle;collapsible=0;dropTarget=0;pointerEvents=0;fillColor=none;top=0;left=0;bottom=0;right=0;points=[[0,0.5],[1,0.5]];portConstraint=eastwest;" vertex="1" parent="bM2ig-2bA8jhtnnjRm1v-250">
          <mxGeometry y="30" width="210" height="30" as="geometry" />
        </mxCell>
        <mxCell id="bM2ig-2bA8jhtnnjRm1v-252" value="PK,FK1" style="shape=partialRectangle;connectable=0;fillColor=none;top=0;left=0;bottom=0;right=0;fontStyle=1;overflow=hidden;" vertex="1" parent="bM2ig-2bA8jhtnnjRm1v-251">
          <mxGeometry width="60" height="30" as="geometry" />
        </mxCell>
        <mxCell id="bM2ig-2bA8jhtnnjRm1v-253" value="account_id int NOT_NULL" style="shape=partialRectangle;connectable=0;fillColor=none;top=0;left=0;bottom=0;right=0;align=left;spacingLeft=6;fontStyle=5;overflow=hidden;" vertex="1" parent="bM2ig-2bA8jhtnnjRm1v-251">
          <mxGeometry x="60" width="150" height="30" as="geometry" />
        </mxCell>
        <mxCell id="bM2ig-2bA8jhtnnjRm1v-254" value="" style="shape=partialRectangle;collapsible=0;dropTarget=0;pointerEvents=0;fillColor=none;top=0;left=0;bottom=1;right=0;points=[[0,0.5],[1,0.5]];portConstraint=eastwest;" vertex="1" parent="bM2ig-2bA8jhtnnjRm1v-250">
          <mxGeometry y="60" width="210" height="30" as="geometry" />
        </mxCell>
        <mxCell id="bM2ig-2bA8jhtnnjRm1v-255" value="PK,FK2" style="shape=partialRectangle;connectable=0;fillColor=none;top=0;left=0;bottom=0;right=0;fontStyle=1;overflow=hidden;" vertex="1" parent="bM2ig-2bA8jhtnnjRm1v-254">
          <mxGeometry width="60" height="30" as="geometry" />
        </mxCell>
        <mxCell id="bM2ig-2bA8jhtnnjRm1v-256" value="role_id int NOT_NULL" style="shape=partialRectangle;connectable=0;fillColor=none;top=0;left=0;bottom=0;right=0;align=left;spacingLeft=6;fontStyle=5;overflow=hidden;" vertex="1" parent="bM2ig-2bA8jhtnnjRm1v-254">
          <mxGeometry x="60" width="150" height="30" as="geometry" />
        </mxCell>
        <mxCell id="bM2ig-2bA8jhtnnjRm1v-257" value="" style="shape=partialRectangle;collapsible=0;dropTarget=0;pointerEvents=0;fillColor=none;top=0;left=0;bottom=0;right=0;points=[[0,0.5],[1,0.5]];portConstraint=eastwest;" vertex="1" parent="bM2ig-2bA8jhtnnjRm1v-250">
          <mxGeometry y="90" width="210" height="30" as="geometry" />
        </mxCell>
        <mxCell id="bM2ig-2bA8jhtnnjRm1v-258" value="" style="shape=partialRectangle;connectable=0;fillColor=none;top=0;left=0;bottom=0;right=0;editable=1;overflow=hidden;" vertex="1" parent="bM2ig-2bA8jhtnnjRm1v-257">
          <mxGeometry width="60" height="30" as="geometry" />
        </mxCell>
        <mxCell id="bM2ig-2bA8jhtnnjRm1v-259" value="" style="shape=partialRectangle;connectable=0;fillColor=none;top=0;left=0;bottom=0;right=0;align=left;spacingLeft=6;overflow=hidden;" vertex="1" parent="bM2ig-2bA8jhtnnjRm1v-257">
          <mxGeometry x="60" width="150" height="30" as="geometry" />
        </mxCell>
        <mxCell id="bM2ig-2bA8jhtnnjRm1v-260" value="" style="shape=partialRectangle;collapsible=0;dropTarget=0;pointerEvents=0;fillColor=none;top=0;left=0;bottom=0;right=0;points=[[0,0.5],[1,0.5]];portConstraint=eastwest;" vertex="1" parent="bM2ig-2bA8jhtnnjRm1v-250">
          <mxGeometry y="120" width="210" height="30" as="geometry" />
        </mxCell>
        <mxCell id="bM2ig-2bA8jhtnnjRm1v-261" value="" style="shape=partialRectangle;connectable=0;fillColor=none;top=0;left=0;bottom=0;right=0;editable=1;overflow=hidden;" vertex="1" parent="bM2ig-2bA8jhtnnjRm1v-260">
          <mxGeometry width="60" height="30" as="geometry" />
        </mxCell>
        <mxCell id="bM2ig-2bA8jhtnnjRm1v-262" value="" style="shape=partialRectangle;connectable=0;fillColor=none;top=0;left=0;bottom=0;right=0;align=left;spacingLeft=6;overflow=hidden;" vertex="1" parent="bM2ig-2bA8jhtnnjRm1v-260">
          <mxGeometry x="60" width="150" height="30" as="geometry" />
        </mxCell>
        <mxCell id="bM2ig-2bA8jhtnnjRm1v-263" value="Location" style="shape=table;startSize=30;container=1;collapsible=1;childLayout=tableLayout;fixedRows=1;rowLines=0;fontStyle=1;align=center;resizeLast=1;" vertex="1" parent="1">
          <mxGeometry x="610" y="960" width="180" height="160" as="geometry" />
        </mxCell>
        <mxCell id="bM2ig-2bA8jhtnnjRm1v-264" value="" style="shape=partialRectangle;collapsible=0;dropTarget=0;pointerEvents=0;fillColor=none;top=0;left=0;bottom=1;right=0;points=[[0,0.5],[1,0.5]];portConstraint=eastwest;" vertex="1" parent="bM2ig-2bA8jhtnnjRm1v-263">
          <mxGeometry y="30" width="180" height="30" as="geometry" />
        </mxCell>
        <mxCell id="bM2ig-2bA8jhtnnjRm1v-265" value="PK" style="shape=partialRectangle;connectable=0;fillColor=none;top=0;left=0;bottom=0;right=0;fontStyle=1;overflow=hidden;" vertex="1" parent="bM2ig-2bA8jhtnnjRm1v-264">
          <mxGeometry width="30" height="30" as="geometry" />
        </mxCell>
        <mxCell id="bM2ig-2bA8jhtnnjRm1v-266" value="id int NOT_NULL" style="shape=partialRectangle;connectable=0;fillColor=none;top=0;left=0;bottom=0;right=0;align=left;spacingLeft=6;fontStyle=5;overflow=hidden;" vertex="1" parent="bM2ig-2bA8jhtnnjRm1v-264">
          <mxGeometry x="30" width="150" height="30" as="geometry" />
        </mxCell>
        <mxCell id="bM2ig-2bA8jhtnnjRm1v-267" value="" style="shape=partialRectangle;collapsible=0;dropTarget=0;pointerEvents=0;fillColor=none;top=0;left=0;bottom=0;right=0;points=[[0,0.5],[1,0.5]];portConstraint=eastwest;" vertex="1" parent="bM2ig-2bA8jhtnnjRm1v-263">
          <mxGeometry y="60" width="180" height="30" as="geometry" />
        </mxCell>
        <mxCell id="bM2ig-2bA8jhtnnjRm1v-268" value="" style="shape=partialRectangle;connectable=0;fillColor=none;top=0;left=0;bottom=0;right=0;editable=1;overflow=hidden;" vertex="1" parent="bM2ig-2bA8jhtnnjRm1v-267">
          <mxGeometry width="30" height="30" as="geometry" />
        </mxCell>
        <mxCell id="bM2ig-2bA8jhtnnjRm1v-269" value="address varchar(255)" style="shape=partialRectangle;connectable=0;fillColor=none;top=0;left=0;bottom=0;right=0;align=left;spacingLeft=6;overflow=hidden;" vertex="1" parent="bM2ig-2bA8jhtnnjRm1v-267">
          <mxGeometry x="30" width="150" height="30" as="geometry" />
        </mxCell>
        <mxCell id="bM2ig-2bA8jhtnnjRm1v-270" value="" style="shape=partialRectangle;collapsible=0;dropTarget=0;pointerEvents=0;fillColor=none;top=0;left=0;bottom=0;right=0;points=[[0,0.5],[1,0.5]];portConstraint=eastwest;" vertex="1" parent="bM2ig-2bA8jhtnnjRm1v-263">
          <mxGeometry y="90" width="180" height="30" as="geometry" />
        </mxCell>
        <mxCell id="bM2ig-2bA8jhtnnjRm1v-271" value="" style="shape=partialRectangle;connectable=0;fillColor=none;top=0;left=0;bottom=0;right=0;editable=1;overflow=hidden;" vertex="1" parent="bM2ig-2bA8jhtnnjRm1v-270">
          <mxGeometry width="30" height="30" as="geometry" />
        </mxCell>
        <mxCell id="bM2ig-2bA8jhtnnjRm1v-272" value="" style="shape=partialRectangle;connectable=0;fillColor=none;top=0;left=0;bottom=0;right=0;align=left;spacingLeft=6;overflow=hidden;" vertex="1" parent="bM2ig-2bA8jhtnnjRm1v-270">
          <mxGeometry x="30" width="150" height="30" as="geometry" />
        </mxCell>
        <mxCell id="bM2ig-2bA8jhtnnjRm1v-273" value="" style="shape=partialRectangle;collapsible=0;dropTarget=0;pointerEvents=0;fillColor=none;top=0;left=0;bottom=0;right=0;points=[[0,0.5],[1,0.5]];portConstraint=eastwest;" vertex="1" parent="bM2ig-2bA8jhtnnjRm1v-263">
          <mxGeometry y="120" width="180" height="30" as="geometry" />
        </mxCell>
        <mxCell id="bM2ig-2bA8jhtnnjRm1v-274" value="" style="shape=partialRectangle;connectable=0;fillColor=none;top=0;left=0;bottom=0;right=0;editable=1;overflow=hidden;" vertex="1" parent="bM2ig-2bA8jhtnnjRm1v-273">
          <mxGeometry width="30" height="30" as="geometry" />
        </mxCell>
        <mxCell id="bM2ig-2bA8jhtnnjRm1v-275" value="" style="shape=partialRectangle;connectable=0;fillColor=none;top=0;left=0;bottom=0;right=0;align=left;spacingLeft=6;overflow=hidden;" vertex="1" parent="bM2ig-2bA8jhtnnjRm1v-273">
          <mxGeometry x="30" width="150" height="30" as="geometry" />
        </mxCell>
        <mxCell id="bM2ig-2bA8jhtnnjRm1v-276" value="" style="edgeStyle=entityRelationEdgeStyle;fontSize=12;html=1;endArrow=ERoneToMany;startArrow=ERzeroToOne;entryX=0.5;entryY=1;entryDx=0;entryDy=0;exitX=0.5;exitY=0;exitDx=0;exitDy=0;" edge="1" parent="1" source="bM2ig-2bA8jhtnnjRm1v-263" target="bM2ig-2bA8jhtnnjRm1v-116">
          <mxGeometry width="100" height="100" relative="1" as="geometry">
            <mxPoint x="690" y="930" as="sourcePoint" />
            <mxPoint x="790" y="830" as="targetPoint" />
          </mxGeometry>
        </mxCell>
        <mxCell id="bM2ig-2bA8jhtnnjRm1v-277" value="" style="edgeStyle=entityRelationEdgeStyle;fontSize=12;html=1;endArrow=ERoneToMany;startArrow=ERzeroToOne;entryX=1;entryY=0.5;entryDx=0;entryDy=0;exitX=0;exitY=0.5;exitDx=0;exitDy=0;" edge="1" parent="1" source="bM2ig-2bA8jhtnnjRm1v-189" target="bM2ig-2bA8jhtnnjRm1v-123">
          <mxGeometry width="100" height="100" relative="1" as="geometry">
            <mxPoint x="870" y="689.9999999999998" as="sourcePoint" />
            <mxPoint x="900" y="515.0000000000002" as="targetPoint" />
          </mxGeometry>
        </mxCell>
        <mxCell id="bM2ig-2bA8jhtnnjRm1v-279" value="" style="edgeStyle=entityRelationEdgeStyle;fontSize=12;html=1;endArrow=ERoneToMany;startArrow=ERzeroToOne;entryX=0;entryY=0.5;entryDx=0;entryDy=0;" edge="1" parent="1" target="bM2ig-2bA8jhtnnjRm1v-148">
          <mxGeometry width="100" height="100" relative="1" as="geometry">
            <mxPoint x="1220" y="560" as="sourcePoint" />
            <mxPoint x="310" y="760.0000000000002" as="targetPoint" />
          </mxGeometry>
        </mxCell>
        <mxCell id="bM2ig-2bA8jhtnnjRm1v-281" value="" style="edgeStyle=entityRelationEdgeStyle;fontSize=12;html=1;endArrow=ERmandOne;startArrow=ERmandOne;exitX=0.5;exitY=0;exitDx=0;exitDy=0;entryX=0.75;entryY=1;entryDx=0;entryDy=0;" edge="1" parent="1" source="bM2ig-2bA8jhtnnjRm1v-224" target="bM2ig-2bA8jhtnnjRm1v-144">
          <mxGeometry width="100" height="100" relative="1" as="geometry">
            <mxPoint x="1300" y="785" as="sourcePoint" />
            <mxPoint x="1400" y="685" as="targetPoint" />
          </mxGeometry>
        </mxCell>
        <mxCell id="bM2ig-2bA8jhtnnjRm1v-285" value="" style="edgeStyle=entityRelationEdgeStyle;fontSize=12;html=1;endArrow=ERoneToMany;startArrow=ERzeroToOne;entryX=0.5;entryY=1;entryDx=0;entryDy=0;exitX=0.5;exitY=0;exitDx=0;exitDy=0;" edge="1" parent="1" source="bM2ig-2bA8jhtnnjRm1v-250">
          <mxGeometry width="100" height="100" relative="1" as="geometry">
            <mxPoint x="1380" y="1114.9999999999998" as="sourcePoint" />
            <mxPoint x="1410" y="940.0000000000002" as="targetPoint" />
          </mxGeometry>
        </mxCell>
        <mxCell id="bM2ig-2bA8jhtnnjRm1v-286" value="" style="edgeStyle=entityRelationEdgeStyle;fontSize=12;html=1;endArrow=ERoneToMany;startArrow=ERzeroToOne;entryX=0.5;entryY=0;entryDx=0;entryDy=0;exitX=0;exitY=0.5;exitDx=0;exitDy=0;" edge="1" parent="1" source="bM2ig-2bA8jhtnnjRm1v-257" target="bM2ig-2bA8jhtnnjRm1v-237">
          <mxGeometry width="100" height="100" relative="1" as="geometry">
            <mxPoint x="1130" y="1130" as="sourcePoint" />
            <mxPoint x="750" y="805.0000000000002" as="targetPoint" />
          </mxGeometry>
        </mxCell>
        <mxCell id="bM2ig-2bA8jhtnnjRm1v-287" value="" style="edgeStyle=entityRelationEdgeStyle;fontSize=12;html=1;endArrow=ERmandOne;startArrow=ERmandOne;exitX=1;exitY=0.5;exitDx=0;exitDy=0;entryX=-0.016;entryY=0.996;entryDx=0;entryDy=0;entryPerimeter=0;" edge="1" parent="1" source="bM2ig-2bA8jhtnnjRm1v-203" target="bM2ig-2bA8jhtnnjRm1v-228">
          <mxGeometry width="100" height="100" relative="1" as="geometry">
            <mxPoint x="1220" y="919.9999999999998" as="sourcePoint" />
            <mxPoint x="1250" y="840.0000000000002" as="targetPoint" />
          </mxGeometry>
        </mxCell>
        <mxCell id="bM2ig-2bA8jhtnnjRm1v-288" value="Export" style="shape=table;startSize=90;container=1;collapsible=1;childLayout=tableLayout;fixedRows=1;rowLines=0;fontStyle=1;align=center;resizeLast=1;" vertex="1" parent="1">
          <mxGeometry x="320" y="-60" width="180" height="210" as="geometry" />
        </mxCell>
        <mxCell id="bM2ig-2bA8jhtnnjRm1v-289" value="" style="shape=partialRectangle;collapsible=0;dropTarget=0;pointerEvents=0;fillColor=none;top=0;left=0;bottom=1;right=0;points=[[0,0.5],[1,0.5]];portConstraint=eastwest;" vertex="1" parent="bM2ig-2bA8jhtnnjRm1v-288">
          <mxGeometry y="90" width="180" height="30" as="geometry" />
        </mxCell>
        <mxCell id="bM2ig-2bA8jhtnnjRm1v-290" value="PK" style="shape=partialRectangle;connectable=0;fillColor=none;top=0;left=0;bottom=0;right=0;fontStyle=1;overflow=hidden;" vertex="1" parent="bM2ig-2bA8jhtnnjRm1v-289">
          <mxGeometry width="30" height="30" as="geometry" />
        </mxCell>
        <mxCell id="bM2ig-2bA8jhtnnjRm1v-291" value="id int NOT NUL" style="shape=partialRectangle;connectable=0;fillColor=none;top=0;left=0;bottom=0;right=0;align=left;spacingLeft=6;fontStyle=5;overflow=hidden;" vertex="1" parent="bM2ig-2bA8jhtnnjRm1v-289">
          <mxGeometry x="30" width="150" height="30" as="geometry" />
        </mxCell>
        <mxCell id="bM2ig-2bA8jhtnnjRm1v-292" value="" style="shape=partialRectangle;collapsible=0;dropTarget=0;pointerEvents=0;fillColor=none;top=0;left=0;bottom=0;right=0;points=[[0,0.5],[1,0.5]];portConstraint=eastwest;" vertex="1" parent="bM2ig-2bA8jhtnnjRm1v-288">
          <mxGeometry y="120" width="180" height="30" as="geometry" />
        </mxCell>
        <mxCell id="bM2ig-2bA8jhtnnjRm1v-293" value="FK" style="shape=partialRectangle;connectable=0;fillColor=none;top=0;left=0;bottom=0;right=0;editable=1;overflow=hidden;" vertex="1" parent="bM2ig-2bA8jhtnnjRm1v-292">
          <mxGeometry width="30" height="30" as="geometry" />
        </mxCell>
        <mxCell id="bM2ig-2bA8jhtnnjRm1v-294" value="vaccine_id int NOT NULL" style="shape=partialRectangle;connectable=0;fillColor=none;top=0;left=0;bottom=0;right=0;align=left;spacingLeft=6;overflow=hidden;" vertex="1" parent="bM2ig-2bA8jhtnnjRm1v-292">
          <mxGeometry x="30" width="150" height="30" as="geometry" />
        </mxCell>
        <mxCell id="bM2ig-2bA8jhtnnjRm1v-295" value="" style="shape=partialRectangle;collapsible=0;dropTarget=0;pointerEvents=0;fillColor=none;top=0;left=0;bottom=0;right=0;points=[[0,0.5],[1,0.5]];portConstraint=eastwest;" vertex="1" parent="bM2ig-2bA8jhtnnjRm1v-288">
          <mxGeometry y="150" width="180" height="30" as="geometry" />
        </mxCell>
        <mxCell id="bM2ig-2bA8jhtnnjRm1v-296" value="FK2" style="shape=partialRectangle;connectable=0;fillColor=none;top=0;left=0;bottom=0;right=0;editable=1;overflow=hidden;" vertex="1" parent="bM2ig-2bA8jhtnnjRm1v-295">
          <mxGeometry width="30" height="30" as="geometry" />
        </mxCell>
        <mxCell id="bM2ig-2bA8jhtnnjRm1v-297" value="inport_id int NOT NULL" style="shape=partialRectangle;connectable=0;fillColor=none;top=0;left=0;bottom=0;right=0;align=left;spacingLeft=6;overflow=hidden;" vertex="1" parent="bM2ig-2bA8jhtnnjRm1v-295">
          <mxGeometry x="30" width="150" height="30" as="geometry" />
        </mxCell>
        <mxCell id="bM2ig-2bA8jhtnnjRm1v-298" value="" style="shape=partialRectangle;collapsible=0;dropTarget=0;pointerEvents=0;fillColor=none;top=0;left=0;bottom=0;right=0;points=[[0,0.5],[1,0.5]];portConstraint=eastwest;" vertex="1" parent="bM2ig-2bA8jhtnnjRm1v-288">
          <mxGeometry y="180" width="180" height="30" as="geometry" />
        </mxCell>
        <mxCell id="bM2ig-2bA8jhtnnjRm1v-299" value="" style="shape=partialRectangle;connectable=0;fillColor=none;top=0;left=0;bottom=0;right=0;editable=1;overflow=hidden;" vertex="1" parent="bM2ig-2bA8jhtnnjRm1v-298">
          <mxGeometry width="30" height="30" as="geometry" />
        </mxCell>
        <mxCell id="bM2ig-2bA8jhtnnjRm1v-300" value="date Date" style="shape=partialRectangle;connectable=0;fillColor=none;top=0;left=0;bottom=0;right=0;align=left;spacingLeft=6;overflow=hidden;" vertex="1" parent="bM2ig-2bA8jhtnnjRm1v-298">
          <mxGeometry x="30" width="150" height="30" as="geometry" />
        </mxCell>
        <mxCell id="bM2ig-2bA8jhtnnjRm1v-304" value="" style="edgeStyle=entityRelationEdgeStyle;fontSize=12;html=1;endArrow=ERoneToMany;startArrow=ERzeroToOne;exitX=0.75;exitY=0;exitDx=0;exitDy=0;entryX=0.5;entryY=1;entryDx=0;entryDy=0;" edge="1" parent="1" source="bM2ig-2bA8jhtnnjRm1v-28" target="bM2ig-2bA8jhtnnjRm1v-288">
          <mxGeometry width="100" height="100" relative="1" as="geometry">
            <mxPoint x="590" y="47" as="sourcePoint" />
            <mxPoint x="570" y="190" as="targetPoint" />
          </mxGeometry>
        </mxCell>
        <mxCell id="bM2ig-2bA8jhtnnjRm1v-305" value="" style="edgeStyle=entityRelationEdgeStyle;fontSize=12;html=1;endArrow=ERoneToMany;startArrow=ERzeroToOne;exitX=0.596;exitY=-0.002;exitDx=0;exitDy=0;entryX=0;entryY=0.5;entryDx=0;entryDy=0;exitPerimeter=0;" edge="1" parent="1" source="C-vyLk0tnHw3VtMMgP7b-2" target="bM2ig-2bA8jhtnnjRm1v-292">
          <mxGeometry width="100" height="100" relative="1" as="geometry">
            <mxPoint x="535" y="300" as="sourcePoint" />
            <mxPoint x="680" y="15" as="targetPoint" />
          </mxGeometry>
        </mxCell>
      </root>
    </mxGraphModel>
  </diagram>
</mxfile>
